<svg xmlns="http://www.w3.org/2000/svg" width="66" height="55" viewBox="0 0 66 55" fill="none"><path fill-rule="evenodd" clip-rule="evenodd" d="M34.8187 21.7353C34.3394 19.8746 33.9165 19.2967 33.6628 18.0281V16.1674C34.9455 15.1948 34.0857 13.024 37.0881 12.0937C39.6818 11.2902 42.4869 12.9394 45.1229 13.0663C45.9968 13.1086 46.8285 13.1227 47.5474 12.9253V13.7852H47.1809C46.9553 13.7993 46.9131 13.8134 46.9131 14.053L46.8849 15.7445C46.8708 16.1533 46.8426 16.7735 46.6311 17.14C46.1237 17.4783 46.1096 16.7594 45.7431 16.9709C45.5035 17.14 45.7008 17.5629 45.8559 17.7321L41.9654 25.7809H41.8526C41.6834 25.7809 41.5425 25.9218 41.5425 26.091C41.5425 26.2601 41.6834 26.4011 41.8526 26.4011H42.1345C42.2473 27.0213 42.7829 27.4865 43.4172 27.4865H52.0722C52.7065 27.4865 53.2422 27.0213 53.3549 26.4011H53.6087C53.7778 26.4011 53.9188 26.2601 53.9188 26.091C53.9188 25.9218 53.7778 25.7809 53.6087 25.7809H53.51L49.5913 17.6616C49.8309 17.4501 50.0847 16.985 49.6477 16.9286C49.1825 16.8581 49.2107 17.5488 48.7596 17.1682C48.5341 16.8017 48.52 16.1392 48.4918 15.7163V14.053C48.4918 13.7852 48.4777 13.7993 48.2381 13.7852H47.9421V12.7985C48.5623 12.5588 49.0697 12.1359 49.4221 11.4029C45.3061 13.7852 41.3028 8.72471 37.2855 9.4577C36.0732 9.68324 34.861 10.3035 33.6628 11.3889V9.83829C34.2126 9.71143 34.6777 8.90796 34.4522 7.93533C34.1703 6.70898 33.0567 6.07466 32.7607 3.65015C32.4646 6.07466 31.337 6.70898 31.0691 7.93533C30.8436 8.95024 31.3511 9.76781 31.929 9.85239V11.4029C30.7308 10.3035 29.5186 9.68324 28.2922 9.4577C24.2749 8.72471 20.2857 13.7852 16.1556 11.4029C16.5221 12.1641 17.0577 12.587 17.7202 12.8266V13.7852H17.3537C17.1282 13.7993 17.0859 13.8134 17.0859 14.053L17.0577 15.7445C17.0436 16.1533 17.0154 16.7735 16.804 17.14C16.2965 17.4783 16.2824 16.7594 15.9159 16.9709C15.6763 17.14 15.8737 17.5629 16.0287 17.7321L12.1382 25.7809H12.0254C11.8563 25.7809 11.7153 25.9218 11.7153 26.091C11.7153 26.2601 11.8563 26.4011 12.0254 26.4011H12.3074C12.4201 27.0213 12.9558 27.4865 13.5901 27.4865H22.245C22.8794 27.4865 23.415 27.0213 23.5278 26.4011H23.7815C23.9507 26.4011 24.0916 26.2601 24.0916 26.091C24.0916 25.9218 23.9507 25.7809 23.7815 25.7809H23.6828L19.7642 17.6616C20.0038 17.4501 20.2575 16.985 19.8205 16.9286C19.3554 16.8581 19.3836 17.5488 18.9325 17.1682C18.7069 16.8017 18.6929 16.1392 18.6647 15.7163V14.053C18.6647 13.7852 18.6506 13.7993 18.4109 13.7852H18.1149V12.9535C18.8056 13.1227 19.6091 13.1086 20.4408 13.0663C23.0626 12.9253 25.8818 11.2902 28.4755 12.0937C31.492 13.024 30.6181 15.2089 31.9149 16.1674V18.1408C31.6753 19.4095 31.2665 20.0297 30.759 21.7071C30.4207 22.8066 30.9846 23.5819 31.7035 23.9484C31.3934 24.0471 31.196 24.1598 31.196 24.329C31.196 24.4981 31.5484 24.7096 32.07 24.7942C31.5625 25.1747 31.2242 25.9218 31.4074 27.0354C31.5061 27.6134 31.7035 28.2618 31.929 28.9384V31.4475H31.8444C31.2665 31.4475 31.8726 37.2832 29.5327 37.2832C29.3635 37.2832 29.2226 37.4242 29.2226 37.5933H27.3196C26.9108 37.5933 26.5725 37.8611 26.4598 38.2417H25.755C25.0783 38.2417 24.5286 38.6505 24.5286 39.1439H41.0632C41.0632 38.6505 40.5135 38.2417 39.8369 38.2417H39.1321C39.0193 37.8752 38.681 37.5933 38.2722 37.5933H36.3692C36.3692 37.4242 36.2283 37.2832 36.045 37.2832C33.7192 37.2832 34.3253 31.4475 33.7474 31.4475H33.6487V28.9384C33.8742 28.2618 34.0716 27.6134 34.1703 27.0354C34.3535 25.9077 34.0152 25.1606 33.5078 24.7942C34.0293 24.7096 34.3817 24.5263 34.3817 24.329C34.3817 24.1739 34.1844 24.0471 33.8742 23.9484C34.5931 23.596 35.1147 22.8348 34.8187 21.7353ZM47.4769 25.795L47.5051 17.7602C47.4628 17.7321 47.4346 17.7039 47.4064 17.6616L47.3923 17.6475V16.5339H47.4769V15.8432C47.4628 15.8432 47.4487 15.8573 47.4346 15.8573C47.195 15.9982 47.2232 17.1541 47.0258 17.5347C46.899 17.8166 46.5466 17.9576 46.2505 17.9153L42.4446 25.795H47.4769ZM47.8857 25.795H53.0589L49.2389 17.873C49.0838 17.9153 48.9288 17.9012 48.7737 17.8448C48.3508 17.6475 48.2099 17.3515 48.1817 16.9004C48.1817 16.7735 48.1394 15.8996 47.928 15.8573V16.5339H48.0266V17.6475L48.0125 17.6616C47.9844 17.7039 47.9421 17.7462 47.8998 17.7884L47.8857 25.795ZM47.9703 14.8424C47.9984 14.8424 48.0266 14.8142 48.0266 14.786V14.3067C48.0266 14.2785 47.9984 14.2503 47.9703 14.2503H47.491C47.4628 14.2503 47.4346 14.2785 47.4346 14.3067V14.786C47.4346 14.8142 47.4628 14.8424 47.491 14.8424H47.9703ZM17.6497 25.795L17.6779 17.7602C17.6357 17.7321 17.6075 17.7039 17.5793 17.6616L17.5652 17.6475V16.5339H17.6497V15.8432C17.6357 15.8432 17.6216 15.8573 17.6075 15.8573C17.3678 15.9982 17.396 17.1541 17.1987 17.5347C17.0718 17.8166 16.7194 17.9576 16.4234 17.9153L12.6175 25.795H17.6497ZM18.0585 25.795H23.2318L19.4118 17.873C19.2567 17.9153 19.1016 17.9012 18.9466 17.8448C18.5237 17.6475 18.3827 17.3515 18.3545 16.9004C18.3545 16.7735 18.3123 15.8996 18.1008 15.8573V16.5339H18.1995V17.6475L18.1854 17.6616C18.1572 17.7039 18.1149 17.7462 18.0726 17.7884L18.0585 25.795ZM18.1431 14.8424C18.1713 14.8424 18.1995 14.8142 18.1995 14.786V14.3067C18.1995 14.2785 18.1713 14.2503 18.1431 14.2503H17.6638C17.6357 14.2503 17.6075 14.2785 17.6075 14.3067V14.786C17.6075 14.8142 17.6357 14.8424 17.6638 14.8424H18.1431Z" fill="white"></path><path fill-rule="evenodd" clip-rule="evenodd" d="M7.14951 42.4283C7.8825 43.1894 10.6312 46.6712 13.972 47.8975C16.7771 48.9265 18.5391 51.2242 19.1734 51.5907C18.7787 51.3933 16.9603 50.3925 15.3111 49.5185C12.8302 48.2217 10.6735 47.8411 8.77055 44.7964C9.6445 47.235 11.5193 48.3486 13.6337 49.3635C13.7182 49.434 12.7738 49.7018 12.069 49.7159C12.6892 50.0119 14.3103 49.7018 14.4935 49.7864C15.7904 50.3925 17.1577 51.0409 18.4263 51.9712C12.3227 52.3096 8.53092 48.9265 7.14951 42.4283ZM12.0267 36.804C13.1262 40.5112 13.0557 44.4017 15.2829 47.1363C16.8335 49.0252 18.9902 50.2938 21.9785 50.6603C20.3434 52.817 17.8484 53.0707 14.0425 52.3377C16.5515 53.5359 18.1726 54.4803 19.8923 53.9024C21.4711 53.3668 22.9652 52.1686 23.5855 49.8709C23.2612 49.7723 22.9511 49.6595 22.6833 49.5467L22.6551 49.5326C22.5282 49.4763 22.4014 49.4199 22.2745 49.3494L22.2322 49.7582C19.9769 48.5036 18.3558 46.6852 17.0731 44.7682C14.9587 41.6671 14.0425 38.4673 12.0267 36.804ZM37.0471 50.7872C37.4136 52.3237 38.0761 53.9447 39.0065 54.9596C37.5828 54.7764 36.145 54.4099 34.9186 53.846C33.1003 53.0285 32.5082 53.0003 30.5912 53.8319C29.3507 54.3817 27.9129 54.7623 26.4751 54.9455C27.4055 53.9306 28.068 52.3096 28.4345 50.7731C30.1683 50.9845 31.7893 51.0973 32.7479 51.1255C33.6923 51.1114 35.3133 50.9986 37.0471 50.7872ZM37.8788 50.6885C38.1889 51.9853 39.2602 55.4107 41.3182 54.9596C39.9086 53.6346 39.528 51.9713 39.3307 50.4489C38.8514 50.5476 38.3722 50.618 37.8788 50.6885ZM27.5887 50.6885C27.2786 51.9853 26.2073 55.4107 24.1493 54.9596C25.5589 53.6346 25.9395 51.9713 26.1368 50.4489C26.6161 50.5476 27.1095 50.618 27.5887 50.6885ZM40.0919 50.322C40.3033 51.9853 41.3887 53.9447 43.0379 54.8468C43.3058 54.9878 44.1938 54.8046 44.3771 54.6777C42.601 53.3809 41.6847 51.8162 41.1914 50.0683C40.839 50.1529 40.4725 50.2374 40.0919 50.322ZM25.3897 50.322C25.1783 51.9853 24.0929 53.9447 22.4437 54.8468C22.1759 54.9878 21.2878 54.8046 21.1046 54.6777C22.8806 53.3809 23.7969 51.8162 24.2903 50.0683C24.6427 50.1529 25.0091 50.2374 25.3897 50.322ZM53.4549 36.804C52.3554 40.5112 52.4259 44.4017 50.1987 47.1363C48.6481 49.0252 46.4915 50.2938 43.5031 50.6603C45.1382 52.817 47.6332 53.0707 51.4392 52.3377C48.9301 53.5359 47.309 54.4803 45.5893 53.9024C44.0106 53.3668 42.5164 52.1686 41.8962 49.8709C42.2204 49.7723 42.5305 49.6595 42.7983 49.5467L42.8265 49.5326C42.9534 49.4763 43.0802 49.4199 43.2071 49.3494L43.2494 49.7582C45.5047 48.5036 47.1258 46.6852 48.4085 44.7682C50.5088 41.6671 51.4392 38.4673 53.4549 36.804ZM51.2841 42.2168C51.0304 44.6554 50.1423 46.4315 48.7891 47.6861C47.4077 48.9688 45.5329 49.73 43.348 50.1388C45.2651 49.5749 47.0271 48.4191 48.4931 45.9945C48.4367 46.5161 48.2535 46.9954 48.0138 47.4746C49.2684 46.0932 50.4101 44.4722 51.2841 42.2168ZM14.1834 42.2168C14.4371 44.6554 15.3252 46.4315 16.6784 47.6861C18.0598 48.9688 19.9346 49.73 22.1195 50.1388C20.2024 49.5749 18.4404 48.4191 16.9744 45.9945C17.0308 46.5161 17.2141 46.9954 17.4537 47.4746C16.2132 46.0932 15.0715 44.4722 14.1834 42.2168ZM58.7409 30.7286C56.1754 36.3106 54.6249 33.6887 54.2724 39.8769C54.2724 39.9192 54.9068 38.3545 55.9076 36.5643C56.9648 34.7036 58.1348 34.1116 58.6422 31.518C58.3603 34.2949 56.9084 35.338 56.1331 36.8321C55.0759 38.8479 54.4698 40.0601 54.498 40.0319C57.1621 38.3827 59.6007 35.5212 58.7409 30.7286ZM6.89578 30.7286C9.46126 36.3106 11.0118 33.6887 11.3642 39.8769C11.3642 39.9192 10.7299 38.3545 9.72908 36.5643C8.67188 34.7036 7.50191 34.1116 6.99445 31.518C7.27637 34.2949 8.72826 35.338 9.50354 36.8321C10.5607 38.8479 11.1669 40.0601 11.1387 40.0319C8.48863 38.3827 6.05002 35.5212 6.89578 30.7286ZM65.225 27.2046C61.8138 31.9831 60.3478 29.5304 59.7276 35.2393C59.7276 35.2816 60.3196 34.0129 61.701 32.1664C62.7723 30.7286 64.3934 29.911 64.9854 27.8812C64.6471 29.911 63.0825 30.8977 61.9266 32.3919C60.7002 33.9707 59.8827 35.5212 59.9249 35.493C62.6455 34.1962 65.1828 31.7576 65.225 27.2046ZM0.411621 27.2046C3.82285 31.9831 5.28884 29.5304 5.90906 35.2393C5.90906 35.2816 5.31703 34.0129 3.93562 32.1664C2.86433 30.7286 1.24329 29.911 0.651253 27.8812C0.989557 29.911 2.55421 30.8977 3.71009 32.3919C4.93644 33.9707 5.75401 35.5212 5.71172 35.493C3.00529 34.1962 0.468005 31.7576 0.411621 27.2046ZM49.9027 0.379883C54.1315 4.32676 55.8371 8.30184 58.2757 9.76782C58.3039 9.78192 56.697 7.48427 55.2874 5.69408C54.0892 4.214 52.7501 2.57886 51.707 1.78948C52.3272 2.18417 54.0328 3.91798 55.4706 5.6095C56.9084 7.30102 58.4872 9.64096 58.4872 9.64096C58.2052 6.86404 53.4267 2.0714 49.9027 0.379883ZM15.7481 0.379883C11.5193 4.32676 9.81366 8.30184 7.37505 9.76782C7.36095 9.78192 8.9538 7.48427 10.3775 5.70817C11.5616 4.214 12.9007 2.57886 13.9438 1.78948C13.3377 2.18417 11.6179 3.91798 10.1802 5.6095C8.74236 7.30102 7.16361 9.64096 7.16361 9.64096C7.44553 6.86404 12.2241 2.0714 15.7481 0.379883ZM56.4714 3.66425C59.2483 8.73881 59.1074 11.9668 61.2782 14.4195C61.2923 14.4336 60.6861 12.5447 59.8968 10.4021C59.2483 8.61195 58.4731 6.63851 57.7401 5.56721C58.1911 6.14515 59.2765 8.31593 60.1082 10.3739C60.9399 12.432 61.5178 14.3631 61.5178 14.349C62.3777 11.5862 59.2906 6.39888 56.4714 3.66425ZM9.16524 3.66425C6.38833 8.75291 6.54338 11.9809 4.3585 14.4336C4.34441 14.4477 4.95053 12.5588 5.73991 10.4162C6.38833 8.62604 7.16361 6.6526 7.8966 5.58131C7.44553 6.14515 6.36013 8.33003 5.52847 10.388C4.69681 12.4461 4.11887 14.3772 4.11887 14.3631C3.27311 11.5862 6.34604 6.39888 9.16524 3.66425ZM54.5403 7.04729C58.0502 11.6567 57.3031 14.49 60.8976 16.9709C60.9399 16.9991 60.1646 15.956 59.5021 14.6027C59.0228 13.6301 57.1057 9.8383 56.0767 8.75291C57.3454 9.93697 59.3893 13.7852 59.7417 14.5041C60.3901 15.7868 61.1231 16.9145 61.1231 16.8722C61.2077 14.49 57.7401 9.31675 54.5403 7.04729ZM11.0964 7.04729C7.58649 11.6567 8.33358 14.49 4.73909 16.9709C4.69681 16.9991 5.47209 15.956 6.1346 14.6027C6.61386 13.6301 8.53092 9.8383 9.55993 8.75291C8.29129 9.93697 6.24737 13.7852 5.89497 14.5041C5.24655 15.7868 4.51356 16.9145 4.51356 16.8722C4.42898 14.49 7.9107 9.31675 11.0964 7.04729ZM62.138 12.15C62.1803 16.5621 60.2633 16.0687 62.4058 19.8747C62.434 19.9169 62.1944 18.6342 62.1944 17.14C62.1944 16.0546 62.8569 14.5746 62.4199 13.1368C63.0402 14.7578 62.4481 16.3507 62.4622 17.1541C62.4904 18.5919 62.6455 19.931 62.6737 19.8888C63.7591 17.7884 64.196 15.082 62.138 12.15ZM3.51274 12.15C3.47045 16.5621 5.38751 16.0687 3.24492 19.8747C3.21673 19.9169 3.45636 18.6342 3.45636 17.14C3.45636 16.0546 2.79385 14.5746 3.23082 13.1368C2.6106 14.7578 3.20263 16.3507 3.18853 17.1541C3.16034 18.5919 3.00529 19.931 2.97709 19.8888C1.87761 17.7884 1.44063 15.082 3.51274 12.15ZM56.852 15.0679C59.488 18.606 57.6555 19.339 61.6306 21.1433C61.6729 21.1574 60.7284 20.2693 59.8404 19.0571C59.192 18.1831 58.8536 16.5903 57.6555 15.7022C59.1074 16.6326 59.5725 18.2818 60.0659 18.9161C60.9399 20.0579 61.8561 21.0446 61.8561 21.0023C61.5037 18.6483 60.2492 16.2097 56.852 15.0679ZM8.79874 15.0679C6.16279 18.606 7.99527 19.339 4.0202 21.1433C3.97791 21.1574 4.92234 20.2693 5.81039 19.0571C6.45881 18.1831 6.79711 16.5903 7.99527 15.7022C6.54338 16.6326 6.07821 18.2818 5.58485 18.9161C4.7109 20.0579 3.79466 21.0446 3.79466 21.0023C4.14706 18.6483 5.40161 16.2097 8.79874 15.0679ZM63.8718 17.6757C62.8569 21.9609 61.109 21.0305 62.2931 25.2452C62.3072 25.2875 62.3777 23.9907 62.7301 22.5388C62.9838 21.4816 63.9846 20.1989 63.9 18.7047C64.1256 20.4244 63.1529 21.834 62.9838 22.6093C62.6596 24.0048 62.5045 25.3439 62.5327 25.3157C64.0974 23.5396 65.1687 21.0164 63.8718 17.6757ZM1.77893 17.6757C2.79385 21.9609 4.54175 21.0305 3.35769 25.2452C3.34359 25.2875 3.27311 23.9907 2.92071 22.5388C2.66698 21.4816 1.66617 20.1989 1.75074 18.7047C1.52521 20.4244 2.49783 21.834 2.66698 22.6093C2.99119 24.0048 3.14625 25.3439 3.11805 25.3157C1.5393 23.5396 0.468005 21.0164 1.77893 17.6757ZM58.2334 19.3813C59.8968 23.4691 57.9374 23.7229 61.3345 26.4575C61.3768 26.4857 60.672 25.3862 60.1223 23.9907C59.7276 22.9758 59.784 21.3547 58.8537 20.1848C60.0377 21.4534 60.0659 23.159 60.376 23.892C60.9258 25.217 61.5742 26.4011 61.5742 26.3588C61.8279 24.0048 61.2359 21.3265 58.2334 19.3813ZM7.41734 19.3813C5.75401 23.4691 7.71335 23.7229 4.31621 26.4575C4.27393 26.4857 4.97873 25.3862 5.52847 23.9907C5.92316 22.9758 5.86678 21.3547 6.79711 20.1848C5.61305 21.4534 5.58486 23.159 5.27474 23.892C4.725 25.217 4.07658 26.4011 4.07658 26.3588C3.80876 24.0048 4.41489 21.3265 7.41734 19.3813ZM64.9572 22.9476C62.8287 26.8099 61.3909 25.4426 61.3909 29.7982C61.3909 29.8546 61.8138 28.6142 62.5468 27.3032C63.0825 26.3588 64.3793 25.3862 64.7035 23.9343C64.4498 25.654 63.1529 26.7535 62.7723 27.4583C62.0957 28.7128 61.5742 29.9674 61.6024 29.9392C63.604 28.6565 65.3237 26.5139 64.9572 22.9476ZM0.693541 22.9476C2.82204 26.8099 4.25983 25.4426 4.25983 29.7982C4.25983 29.8546 3.83695 28.6142 3.10396 27.3032C2.56831 26.3588 1.27148 25.3862 0.947269 23.9343C1.201 25.654 2.49783 26.7535 2.87842 27.4583C3.55503 28.7128 4.07658 29.9674 4.04839 29.9392C2.04676 28.6565 0.327045 26.5139 0.693541 22.9476ZM58.5858 23.9484C59.3329 28.29 57.3595 28.1208 60.0941 31.532C60.1223 31.5743 59.6853 30.348 59.4457 28.8679C59.2765 27.7966 59.6853 26.232 59.0228 24.8787C59.8968 26.3729 59.5725 28.0503 59.7135 28.8397C59.9672 30.2493 60.3478 31.5461 60.3619 31.5039C61.0949 29.2485 61.0949 26.4998 58.5858 23.9484ZM7.06494 23.9484C6.31785 28.29 8.29129 28.1208 5.55666 31.532C5.52847 31.5743 5.96545 30.348 6.20508 28.8679C6.37423 27.7966 5.96545 26.232 6.62796 24.8787C5.75401 26.3729 6.07821 28.0503 5.93725 28.8397C5.68353 30.2493 5.30293 31.5461 5.28884 31.5039C4.55585 29.2485 4.55585 26.4998 7.06494 23.9484ZM61.983 34.605C61.4473 35.8172 60.4747 37.0859 58.91 38.2417C56.7393 39.8205 56.6829 39.6232 54.6812 41.5966C54.0469 42.2168 53.3421 42.7807 52.5809 43.3022C52.5809 43.3022 55.2733 42.2873 57.881 40.5112C59.6289 39.3271 61.546 38.1995 61.8984 35.7186C61.842 38.0162 60.1646 39.3694 58.0784 40.8072C56.4573 41.9208 53.7227 43.3304 52.2708 43.6828C55.2592 43.4291 64.041 42.1041 61.983 34.605ZM3.6678 34.605C4.21754 35.8172 5.17607 37.0859 6.74073 38.2417C8.91151 39.8205 8.9679 39.6232 10.9695 41.5966C11.6038 42.2168 12.3086 42.7807 13.0698 43.3022C13.0698 43.3022 10.3775 42.2873 7.75564 40.5112C6.00773 39.3271 4.09068 38.1995 3.73828 35.7186C3.79466 38.0162 5.47209 39.3694 7.5583 40.8072C9.17934 41.9208 11.914 43.3304 13.3658 43.6828C10.3775 43.4291 1.60978 42.1041 3.6678 34.605ZM58.5013 42.4283C57.7683 43.1894 55.0195 46.6712 51.6788 47.8975C48.8737 48.9265 47.1117 51.2242 46.4774 51.5907C46.8721 51.3933 48.6904 50.3925 50.3397 49.5185C52.8206 48.2217 54.9772 47.8411 56.8802 44.7964C56.0063 47.235 54.1315 48.3486 52.0171 49.3635C51.9043 49.4199 52.8629 49.6877 53.5676 49.7018C52.9474 49.9978 51.3264 49.6877 51.1431 49.7723C49.8463 50.3784 48.479 51.0268 47.2104 51.9572C53.328 52.3096 57.1198 48.9265 58.5013 42.4283Z" fill="white"></path></svg>