<svg xmlns="http://www.w3.org/2000/svg" width="65" height="54" viewBox="0 0 65 54" fill="none"><g clip-path="url(#clip0_2877_3405)"><path d="M43.5942 43.0477C43.5942 43.0477 44.3493 46.9188 41.5649 48.6389C44.6285 48.8341 45.9814 49.2245 47.0943 51.8451C44.5872 52.1196 42.0014 51.7678 40.7292 48.8727C39.457 45.9815 42.202 43.5174 43.5942 43.0477Z" fill="white"></path><path d="M46.349 41.4688C46.349 41.4688 47.9496 45.0828 45.6156 47.3614C48.6477 46.8937 50.0556 46.9826 51.725 49.2998C49.3398 50.1057 46.7383 50.3203 44.8526 47.7711C42.9669 45.22 45.0964 42.2263 46.349 41.4688Z" fill="white"></path><path d="M49.1571 39.0993C49.1571 39.0993 51.3751 42.3829 49.4815 45.0267C52.3839 44.0449 53.7859 43.8923 55.8427 45.8848C53.6384 47.0889 51.1156 47.746 48.8031 45.5601C46.4927 43.3743 48.0559 40.0598 49.1571 39.0993Z" fill="white"></path><path d="M51.8687 36.5966C51.8687 36.5966 54.594 39.2675 53.3297 42.1085C55.8682 40.6377 57.1562 40.2319 59.4785 41.7181C57.6399 43.2642 55.3963 44.3581 52.7968 42.7366C50.1953 41.117 51.0212 37.7059 51.8687 36.5966Z" fill="white"></path><path d="M53.8332 33.025C53.8332 33.025 57.0561 35.091 56.4092 38.1272C58.5879 36.1791 59.7638 35.522 62.3456 36.5115C60.8669 38.3958 58.8966 39.9149 56.0159 38.85C53.1371 37.7871 53.2355 34.2832 53.8332 33.025Z" fill="white"></path><path d="M55.4298 30.0565C55.4298 30.0565 59.0951 31.2102 59.2897 34.3063C60.8648 31.8596 61.8224 30.9203 64.5792 31.2025C63.661 33.4038 62.1724 35.3828 59.1069 35.1065C56.0413 34.8282 55.1918 31.4248 55.4298 30.0565Z" fill="white"></path><path d="M55.8761 24.9871C55.8761 24.9871 59.5316 26.137 59.7243 29.2254C61.2954 26.7864 62.2491 25.8491 65 26.1293C64.0857 28.3248 62.5991 30.298 59.5414 30.0217C56.4857 29.7492 55.6382 26.3516 55.8761 24.9871Z" fill="white"></path><path d="M55.9058 21.2784C55.9058 21.2784 59.4236 21.3808 60.391 24.0518C61.1461 21.5103 61.7439 20.4454 64.2392 20.0087C63.9993 22.1713 63.201 24.2798 60.4363 24.8016C57.6716 25.3215 56.0473 22.5404 55.9058 21.2784Z" fill="white"></path><path d="M54.9478 16.9802C54.9478 16.9802 58.4616 16.7985 59.6493 19.3844C60.1901 16.7908 60.6974 15.6815 63.1475 15.0437C63.0885 17.2179 62.4671 19.3844 59.7555 20.1266C57.0439 20.8668 55.1955 18.2268 54.9478 16.9802Z" fill="white"></path><path d="M52.9976 13.2019C52.9976 13.2019 56.248 12.5738 57.705 14.8292C57.8584 12.3399 58.1809 11.2403 60.3793 10.3261C60.6192 12.3612 60.3321 14.462 57.9056 15.5056C55.4791 16.5512 53.3987 14.3305 52.9976 13.2019Z" fill="white"></path><path d="M50.4922 10.2276C50.4922 10.2276 53.5282 8.92304 55.4474 10.8132C55.0482 8.35098 55.123 7.20879 57.0677 5.84821C57.75 7.78278 57.9329 9.89516 55.7935 11.4316C53.6521 12.9681 51.1313 11.2441 50.4922 10.2276Z" fill="white"></path><path d="M47.9536 8.00694C47.9536 8.00694 50.4981 5.92162 52.8774 7.21069C51.7959 4.9553 51.5422 3.83823 53.0229 1.99835C54.2263 3.67009 55.003 5.64718 53.3847 7.70931C51.7664 9.77144 48.8562 8.80899 47.9536 8.00694Z" fill="white"></path><path d="M44.8057 5.38048C44.8057 5.38048 47.0847 3.51161 49.2162 4.66733C48.2468 2.64772 48.0187 1.64855 49.346 0C50.4236 1.49587 51.1196 3.2681 49.6704 5.11571C48.2212 6.96138 45.6138 6.09942 44.8057 5.38048Z" fill="white"></path><path d="M42.0918 0.838748C42.0918 0.838748 43.9618 3.79763 47.46 3.23716C47.3262 1.18469 43.1497 0.2261 42.0918 0.838748Z" fill="white"></path><path d="M39.2582 46.998H37.9644V51.4025H39.2582V46.998Z" fill="white"></path><path d="M36.1635 45.8906H34.8696V52.5061H36.1635V45.8906Z" fill="white"></path><path d="M21.4039 43.0477C21.4039 43.0477 20.6488 46.9188 23.4332 48.6389C20.3696 48.8341 19.0168 49.2245 17.9038 51.8451C20.4109 52.1196 22.9947 51.7678 24.2689 48.8727C25.5412 45.9815 22.7961 43.5174 21.4039 43.0477Z" fill="white"></path><path d="M18.649 41.4688C18.649 41.4688 17.0484 45.0828 19.3824 47.3614C16.3503 46.8937 14.9424 46.9826 13.2729 49.2998C15.6581 50.1057 18.2577 50.3203 20.1454 47.7711C22.0331 45.22 19.9035 42.2263 18.649 41.4688Z" fill="white"></path><path d="M15.8429 39.0993C15.8429 39.0993 13.6248 42.3829 15.5184 45.0267C12.6161 44.0449 11.214 43.8923 9.15723 45.8848C11.3615 47.0889 13.8844 47.746 16.1968 45.5601C18.5073 43.3743 16.942 40.0598 15.8429 39.0993Z" fill="white"></path><path d="M13.1313 36.5966C13.1313 36.5966 10.4059 39.2675 11.6703 42.1085C9.13172 40.6377 7.84376 40.2319 5.52148 41.7181C7.36003 43.2642 9.60365 44.3581 12.2032 42.7366C14.8027 41.117 13.9788 37.7059 13.1313 36.5966Z" fill="white"></path><path d="M11.1672 33.025C11.1672 33.025 7.94429 35.091 8.59123 38.1272C6.4125 36.1791 5.23662 35.522 2.65479 36.5115C4.13349 38.3958 6.10378 39.9149 8.9845 38.85C11.8632 37.7871 11.7649 34.2832 11.1672 33.025Z" fill="white"></path><path d="M9.57037 30.0565C9.57037 30.0565 5.90508 31.2102 5.71041 34.3063C4.13535 31.8596 3.17774 30.9203 0.420898 31.2025C1.33919 33.4038 2.82772 35.3828 5.89328 35.1065C8.95883 34.8282 9.8083 31.4248 9.57037 30.0565Z" fill="white"></path><path d="M9.12391 24.9871C9.12391 24.9871 5.46845 26.137 5.27574 29.2254C3.70462 26.7864 2.74897 25.8491 0 26.1312C0.914358 28.3267 2.40093 30.3 5.45862 30.0236C8.51434 29.7492 9.36184 26.3516 9.12391 24.9871Z" fill="white"></path><path d="M9.09418 21.2784C9.09418 21.2784 5.57636 21.3808 4.60891 24.0518C3.85383 21.5103 3.25605 20.4454 0.760742 20.0087C1.00064 22.1713 1.79898 24.2798 4.56368 24.8016C7.32838 25.3215 8.95063 22.5404 9.09418 21.2784Z" fill="white"></path><path d="M10.0523 16.9802C10.0523 16.9802 6.53838 16.7985 5.35069 19.3844C4.80994 16.7908 4.30262 15.6815 1.85254 15.0437C1.91153 17.2179 2.5329 19.3844 5.24451 20.1266C7.95415 20.8668 9.8045 18.2268 10.0523 16.9802Z" fill="white"></path><path d="M12.0009 13.2019C12.0009 13.2019 8.75054 12.5738 7.29346 14.8292C7.14009 12.3399 6.8176 11.2403 4.61921 10.3261C4.37932 12.3612 4.66641 14.462 7.0929 15.5056C9.52135 16.5512 11.6018 14.3305 12.0009 13.2019Z" fill="white"></path><path d="M14.5077 10.2276C14.5077 10.2276 11.4716 8.92304 9.55245 10.8132C9.95162 8.35098 9.8769 7.20879 7.93217 5.84821C7.24984 7.78278 7.06697 9.89516 9.20637 11.4316C11.3477 12.9681 13.8686 11.2441 14.5077 10.2276Z" fill="white"></path><path d="M17.0464 8.00694C17.0464 8.00694 14.502 5.92162 12.1227 7.21069C13.2042 4.9553 13.4578 3.83823 11.9772 1.99835C10.7718 3.67009 9.99703 5.64718 11.6153 7.70931C13.2337 9.77144 16.1439 8.80899 17.0464 8.00694Z" fill="white"></path><path d="M20.1945 5.38048C20.1945 5.38048 17.9155 3.51161 15.784 4.66733C16.7534 2.64772 16.9795 1.64855 15.6542 0C14.5746 1.49587 13.8805 3.2681 15.3297 5.11571C16.7789 6.96138 19.3863 6.09942 20.1945 5.38048Z" fill="white"></path><path d="M22.9062 0.838748C22.9062 0.838748 21.0362 3.79763 17.5381 3.23716C17.6738 1.18469 21.8503 0.2261 22.9062 0.838748Z" fill="white"></path><path d="M27.0356 46.998H25.7417V51.4025H27.0356V46.998Z" fill="white"></path><path d="M30.1303 45.8906H28.8364V52.5061H30.1303V45.8906Z" fill="white"></path><path d="M33.0683 44.3986H31.7744V54.0019H33.0683V44.3986Z" fill="white"></path><path d="M39.1662 13.5846C39.2625 13.9189 39.1052 14.2552 38.8122 14.3383L30.2015 16.7541C29.9085 16.8353 29.5939 16.6323 29.4956 16.298C29.3992 15.9637 29.5566 15.6274 29.8495 15.5443L38.4602 13.1285C38.7532 13.0473 39.0698 13.2502 39.1662 13.5846Z" fill="white"></path><path d="M42.674 25.6655C42.7703 25.9999 42.613 26.3361 42.32 26.4192L33.7093 28.8351C33.4163 28.9162 33.1017 28.7133 33.0054 28.3789C32.909 28.0446 33.0663 27.7083 33.3593 27.6252L41.97 25.2094C42.261 25.1263 42.5776 25.3312 42.674 25.6655Z" fill="white"></path><path d="M38.4441 14.758L30.7427 16.9188L33.686 27.0528L41.3875 24.892L38.4441 14.758Z" fill="white"></path><path d="M34.9816 21.4272C35.1074 21.8196 34.8872 22.2389 34.488 22.3626L19.8426 26.9217C19.4434 27.0454 19.0167 26.829 18.8909 26.4366C18.765 26.0443 18.9853 25.6249 19.3844 25.5012L34.0299 20.9421C34.429 20.8165 34.8557 21.0349 34.9816 21.4272Z" fill="white"></path><path d="M43.7477 31.1619H21.0933V32.3737H43.7477V31.1619Z" fill="white"></path><path d="M48.8387 33.2724H16.0024V35.1297H48.8387V33.2724Z" fill="white"></path></g><defs><clipPath id="clip0_2877_3405"><rect width="65" height="54" fill="white"></rect></clipPath></defs></svg>