<svg xmlns="http://www.w3.org/2000/svg" width="66" height="57" viewBox="0 0 66 57" fill="none"><g clip-path="url(#clip0_2877_3339)"><path d="M33.7696 9.912L32.9994 7.58533L32.2293 9.912H29.7373L31.7534 11.3502L30.9833 13.6765L32.9994 12.2387L35.0156 13.6765L34.2455 11.3502L36.2612 9.912H33.7696Z" fill="white"></path><path d="M39.7215 12.8619L40.8642 13.6765L40.4278 12.3581L41.57 11.5435H40.1579L39.7215 10.2251L39.2852 11.5435H37.873L39.0157 12.3581L38.5793 13.6765L39.7215 12.8619Z" fill="white"></path><path d="M26.7142 11.5435L26.2778 10.2251L25.8414 11.5435H24.4297L25.5719 12.3581L25.1356 13.6765L26.2778 12.8619L27.4204 13.6765L26.9841 12.3581L28.1263 11.5435H26.7142Z" fill="white"></path><path d="M38.3561 19.6717C38.4397 20.1777 39.1129 20.3486 39.423 19.9359C39.6906 19.5795 39.539 19.0553 39.003 18.987C39.003 18.987 38.5697 18.8933 38.3443 19.4124L36.8626 19.3952C36.8626 19.3952 34.8906 18.8668 34.6359 18.7989L34.5074 18.8952C34.3995 18.9761 34.2653 19.0161 34.1296 19.0071C33.9357 18.9944 33.7624 18.884 33.6715 18.7157L33.6613 18.6963L33.6286 16.1155C33.6274 16.017 33.6613 15.9211 33.7248 15.8446L33.9859 15.5292C34.0463 15.4561 34.0802 15.3654 34.0821 15.271L34.0935 14.6389C34.0954 14.5247 34.0501 14.4142 33.9676 14.3332L33.5434 13.9168C33.4629 13.8377 33.3538 13.7933 33.2397 13.7933H32.9999H32.76C32.646 13.7933 32.5369 13.8377 32.4563 13.9168L32.0325 14.3332C31.95 14.4142 31.9048 14.5243 31.9067 14.6389L31.9181 15.271C31.9196 15.365 31.9534 15.4561 32.0142 15.5292L32.2754 15.8446C32.3389 15.9211 32.3727 16.017 32.3715 16.1155L32.3506 17.7469C32.3282 17.9652 32.3301 18.2078 32.3419 18.4302L32.3385 18.6963L32.3339 18.7045C32.2739 18.8161 32.18 18.909 32.0625 18.9605C31.8687 19.0448 31.652 19.0153 31.4923 18.8955L31.3639 18.7993C31.1054 18.8679 29.1155 19.3956 29.1155 19.3956L27.6338 19.4127C27.4084 18.8937 26.9751 18.9873 26.9751 18.9873C26.4391 19.0556 26.2874 19.5799 26.555 19.9363C26.8648 20.349 27.5384 20.1781 27.622 19.6721C27.6243 19.6583 27.6251 19.6508 27.6251 19.6508L29.0896 19.668L30.2091 19.9441C30.4942 20.0147 30.75 20.1714 30.937 20.3938C30.9431 20.4013 30.9465 20.405 30.9465 20.405L31.6144 19.8833C31.6623 19.846 31.7185 19.8187 31.779 19.8105C31.9823 19.7822 32.1572 19.9348 32.1591 20.1288C32.18 22.0756 32.272 30.8976 32.2495 33.6224C32.2241 36.6921 32.9995 39.4565 32.9995 39.4565C32.9995 39.4565 33.7749 36.6917 33.7495 33.6224C33.727 30.898 33.8019 22.0771 33.8194 20.1292C33.8209 19.9508 33.9688 19.8072 34.1505 19.8072H34.1714C34.2463 19.8072 34.3189 19.8322 34.3778 19.8781L35.0529 20.4054C35.0529 20.4054 35.0635 20.3927 35.0833 20.3699C35.2695 20.1568 35.5193 20.0061 35.7964 19.9374L36.8881 19.668L38.3526 19.6508C38.353 19.6508 38.3538 19.6583 38.3561 19.6717ZM33.1656 20.6531L33.0003 34.5777L32.8349 20.6531L32.2013 19.8072L32.9999 20.405L33.7787 19.8072L33.1656 20.6531Z" fill="white"></path><path d="M27.1629 22.822L27.0706 20.3307V22.8433L28.3736 28.3926H28.2063H28.1296H27.4993H27.3572H26.8748V23.1097L26.6315 28.3926H25.5714L26.8744 22.8433V20.3307L26.7821 22.822L25.273 28.3926H25.1514C25.2091 28.6318 25.3429 28.8713 25.5531 29.1105C25.5938 29.1568 25.6535 29.1833 25.7158 29.1833H28.1375C28.1835 29.1833 28.2288 29.1691 28.2656 29.1419C28.4785 28.984 28.6496 28.7266 28.764 28.3922H28.672L27.1629 22.822Z" fill="white"></path><path d="M40.7273 28.3922L39.2182 22.8216L39.1259 20.3304V22.8429L40.4289 28.3922H39.3688L39.1255 23.1093V28.3922H38.6431H38.501H37.8707H37.794H37.6267L38.9297 22.8429V20.3304L38.8374 22.8216L37.3283 28.3922H37.2363C37.3507 28.7262 37.5218 28.984 37.7347 29.1419C37.7715 29.1691 37.8168 29.1833 37.8628 29.1833H40.2845C40.3468 29.1833 40.4065 29.1568 40.4472 29.1105C40.6574 28.8714 40.7912 28.6318 40.8489 28.3926H40.7273V28.3922Z" fill="white"></path><path d="M30.1494 22.4014C30.1494 22.1197 29.9164 21.8909 29.6294 21.8909C29.342 21.8909 29.1094 22.1197 29.1094 22.4014V39.3561H30.1497V22.4014H30.1494Z" fill="white"></path><path d="M31.8656 23.1675C31.8656 22.8858 31.6326 22.657 31.3452 22.657C31.0578 22.657 30.8252 22.8858 30.8252 23.1675V39.3565H31.8656V23.1675Z" fill="white"></path><path d="M35.1748 23.1675C35.1748 22.8858 34.9417 22.657 34.6548 22.657C34.3674 22.657 34.1348 22.8858 34.1348 23.1675V39.3565H35.1751V23.1675H35.1748Z" fill="white"></path><path d="M36.8916 22.4014C36.8916 22.1197 36.6585 21.8909 36.3716 21.8909C36.0842 21.8909 35.8516 22.1197 35.8516 22.4014V39.3561H36.8919V22.4014H36.8916Z" fill="white"></path><path d="M29.1796 40.6711H36.8199C37.1072 40.6711 37.3399 40.4424 37.3399 40.1603C37.3399 39.8785 37.1068 39.6494 36.8199 39.6494H29.1796C28.8922 39.6494 28.6592 39.8782 28.6592 40.1603C28.6592 40.4424 28.8922 40.6711 29.1796 40.6711Z" fill="white"></path><path d="M37.9921 41.1047H28.0077C27.7203 41.1047 27.4873 41.3335 27.4873 41.6156C27.4873 41.8977 27.7203 42.1265 28.0077 42.1265H37.9921C38.2795 42.1265 38.5125 41.8977 38.5125 41.6156C38.5125 41.3339 38.2795 41.1047 37.9921 41.1047Z" fill="white"></path><path d="M36.8917 20.8528H34.1348V21.5271H36.8917V20.8528Z" fill="white"></path><path d="M31.8663 20.8528H29.1094V21.5271H31.8663V20.8528Z" fill="white"></path><path d="M27.4073 50.161C27.4384 50.227 27.473 50.2953 27.5114 50.3658C27.5304 50.4013 27.5506 50.4371 27.5715 50.4733C27.5924 50.5095 27.6144 50.5453 27.6372 50.5823C27.7285 50.7289 27.8341 50.8827 27.9554 51.0405C28.0158 51.1193 28.0801 51.2002 28.1485 51.2793C28.2169 51.3581 28.2895 51.4376 28.3655 51.5171C28.4419 51.5965 28.5221 51.6764 28.6065 51.7562C28.6487 51.7958 28.6917 51.8365 28.7361 51.8749C28.7802 51.9134 28.8255 51.9518 28.8718 51.9902C28.9642 52.0667 29.0566 52.141 29.1486 52.2123C29.1946 52.2481 29.2402 52.2832 29.2858 52.3175C29.3086 52.3347 29.3314 52.3514 29.3542 52.3686C29.377 52.3847 29.3998 52.4007 29.4222 52.4168C29.6036 52.544 29.7822 52.6604 29.9555 52.7634C29.9989 52.7895 30.0418 52.8138 30.0844 52.8366C30.127 52.8597 30.1692 52.8817 30.2114 52.903C30.295 52.9455 30.3771 52.9847 30.4577 53.0202C30.5379 53.0556 30.6162 53.0873 30.6922 53.1153C30.7682 53.1418 30.8423 53.1635 30.9138 53.1817C31.0567 53.2179 31.1898 53.2381 31.3103 53.2403C31.3403 53.2411 31.3699 53.2403 31.3985 53.2385C31.427 53.2362 31.4547 53.2325 31.4817 53.228C31.5357 53.2187 31.5862 53.2045 31.6334 53.1858C31.8219 53.1105 31.9527 52.9586 32.0131 52.7164C32.1427 52.2559 31.9968 51.6107 31.6425 51.1517C31.5547 51.0327 31.4536 50.9256 31.3411 50.8289C31.2285 50.73 31.1042 50.6412 30.9697 50.5625C30.7006 50.4091 30.3912 50.2804 30.0498 50.1893C29.3683 49.9986 28.7198 49.8438 28.2378 49.6441C28.1165 49.596 28.0052 49.5464 27.9048 49.4994C27.8045 49.452 27.714 49.409 27.6349 49.3684C27.4764 49.2893 27.3594 49.2408 27.2818 49.259C27.2035 49.265 27.1739 49.3587 27.1933 49.5169C27.213 49.6755 27.2826 49.8975 27.4073 50.161Z" fill="white"></path><path d="M31.6466 53.5639C31.5976 53.5489 31.5455 53.5389 31.4908 53.5336C31.4634 53.531 31.4349 53.5299 31.406 53.5295C31.3771 53.5288 31.3475 53.5288 31.3167 53.5303C31.195 53.5359 31.0616 53.5598 30.9172 53.6001C30.8449 53.6202 30.7701 53.6449 30.6925 53.6725C30.615 53.6986 30.5344 53.7288 30.4515 53.7628C30.3687 53.7964 30.2831 53.834 30.1949 53.8747C30.1509 53.8952 30.106 53.9165 30.0608 53.9385C30.0155 53.9609 29.9695 53.9833 29.9228 54.0057C29.7362 54.096 29.5396 54.199 29.3332 54.3124C29.3074 54.3266 29.2815 54.3412 29.2553 54.3557C29.2291 54.3699 29.2029 54.3841 29.1766 54.3983C29.1238 54.427 29.0706 54.4561 29.0166 54.4856C28.9086 54.5449 28.7988 54.6069 28.6863 54.671C28.63 54.7031 28.5745 54.7356 28.5198 54.7681C28.4651 54.8002 28.4111 54.8319 28.3575 54.8632C28.2507 54.9267 28.1465 54.9909 28.0454 55.055C27.9443 55.1196 27.8462 55.1842 27.7512 55.2491C27.6562 55.3133 27.5646 55.3752 27.476 55.4379C27.2992 55.5629 27.1358 55.6872 26.9879 55.8073C26.9511 55.8376 26.9153 55.8674 26.88 55.8965C26.845 55.9253 26.8108 55.954 26.7781 55.9823C26.712 56.0391 26.65 56.0943 26.5926 56.1484C26.3619 56.3637 26.1999 56.5548 26.1216 56.6996C26.043 56.8444 26.0483 56.9429 26.1479 56.9727C26.2418 57.0141 26.4105 57.0041 26.639 56.9776C26.753 56.9653 26.883 56.9436 27.0256 56.9238C27.1685 56.9033 27.3243 56.8832 27.4916 56.8667C28.1587 56.7757 29.0155 56.7358 29.8901 56.5816C30.3272 56.5003 30.7172 56.3857 31.0434 56.2171C31.2064 56.1342 31.3539 56.0421 31.4835 55.9391C31.6132 55.8335 31.7253 55.7178 31.818 55.5916C32.1951 55.1043 32.262 54.4509 32.0788 54.0023C31.9895 53.7654 31.8424 53.6243 31.6466 53.5639Z" fill="white"></path><path d="M24.4462 51.3167C24.7556 51.685 25.0726 52.0007 25.3782 52.2615C25.5318 52.3884 25.6823 52.5018 25.8279 52.5992C25.8644 52.6235 25.9005 52.647 25.9362 52.6694C25.972 52.6907 26.0077 52.7112 26.0431 52.7306C26.1134 52.7694 26.1826 52.8037 26.2495 52.8339C26.384 52.8937 26.511 52.9381 26.63 52.9586C26.7489 52.9787 26.8588 52.9791 26.958 52.9582C27.1564 52.9164 27.3115 52.7899 27.4134 52.5589C27.5171 52.3414 27.5609 52.0682 27.5449 51.7861C27.5369 51.645 27.5141 51.5021 27.4765 51.3626C27.4388 51.2223 27.3868 51.0842 27.3195 50.9562C27.2537 50.8237 27.1731 50.7006 27.0792 50.5864C27.0325 50.5289 26.9819 50.4752 26.9287 50.4207C26.8755 50.3662 26.8192 50.314 26.76 50.2636C26.6417 50.1625 26.511 50.0718 26.3707 49.9848C26.2308 49.896 26.0803 49.8151 25.9207 49.7412C25.2836 49.4382 24.6727 49.1784 24.2333 48.9004C24.1223 48.8325 24.0216 48.7642 23.9311 48.7008C23.8863 48.6687 23.843 48.6385 23.8023 48.6094C23.7616 48.5806 23.7236 48.5534 23.6882 48.5265C23.5461 48.4217 23.4393 48.3537 23.3602 48.3586C23.2823 48.3511 23.2363 48.4385 23.2279 48.5974C23.2196 48.7564 23.2492 48.987 23.326 49.268C23.4773 49.8289 23.8255 50.5823 24.4462 51.3167Z" fill="white"></path><path d="M26.3322 55.6436C26.4786 55.5618 26.6089 55.4671 26.7222 55.3588C26.8362 55.2547 26.9328 55.1379 27.0122 55.0122C27.0917 54.8857 27.1536 54.7521 27.1985 54.6166C27.2874 54.3461 27.3064 54.0703 27.2548 53.8356C27.2076 53.5908 27.0871 53.4255 26.905 53.3326C26.8138 53.2859 26.707 53.2572 26.5857 53.2449C26.4645 53.2322 26.3292 53.2307 26.1802 53.2464C26.1057 53.2538 26.0277 53.265 25.9464 53.2792C25.9057 53.2863 25.8643 53.2945 25.8217 53.3035C25.7795 53.3113 25.7366 53.3203 25.6929 53.3296C25.5176 53.3676 25.3295 53.418 25.1292 53.4792C24.73 53.5949 24.2815 53.7535 23.7946 53.9259C22.8211 54.2737 22.0023 54.6819 21.4717 55.0282C21.2068 55.2014 21.0137 55.3618 20.911 55.4909C20.8084 55.6201 20.7962 55.7182 20.889 55.7645C20.9741 55.8212 21.1421 55.8399 21.3721 55.8525C21.4295 55.8563 21.4911 55.8578 21.5565 55.8593C21.6215 55.8608 21.6906 55.8626 21.7629 55.8645C21.9069 55.869 22.0643 55.8753 22.2319 55.8876C22.4007 55.8925 22.5805 55.9029 22.7686 55.9171C22.8629 55.9238 22.9587 55.9328 23.0571 55.9395C23.1556 55.9462 23.2563 55.9525 23.3586 55.9596C23.7664 55.9906 24.2036 56.01 24.6475 56.0108C24.8703 56.0078 25.0828 55.9943 25.2835 55.969C25.4846 55.9417 25.6739 55.8988 25.8491 55.8462C25.9369 55.8193 26.0209 55.7899 26.1015 55.7566C26.1821 55.7234 26.2592 55.6842 26.3322 55.6436Z" fill="white"></path><path d="M19.4855 47.9254C19.4969 48.0045 19.5109 48.0873 19.5288 48.1709C19.5642 48.3392 19.6105 48.5191 19.6698 48.7079C19.6999 48.802 19.7322 48.9001 19.7694 48.9967C19.8067 49.0938 19.8473 49.1923 19.8918 49.2927C19.9808 49.4931 20.083 49.7017 20.205 49.9058C20.2655 50.0088 20.3267 50.1091 20.3882 50.2073C20.419 50.2562 20.4498 50.3047 20.481 50.3525C20.5125 50.3991 20.5441 50.445 20.5756 50.4902C20.7022 50.6704 20.8296 50.8409 20.9577 50.9939C21.0865 51.1451 21.215 51.282 21.3412 51.4025C21.3727 51.4328 21.4043 51.4619 21.4355 51.4899C21.467 51.5171 21.4986 51.5432 21.5297 51.5682C21.5924 51.6182 21.654 51.6641 21.7148 51.7052C21.7757 51.7462 21.8357 51.7828 21.8943 51.8141C21.9528 51.8459 22.0106 51.8723 22.0676 51.8918C22.1812 51.9317 22.2892 51.9507 22.3907 51.9474C22.4922 51.9436 22.5864 51.9171 22.6731 51.8656C22.7598 51.8134 22.8392 51.7346 22.9095 51.6305C23.0498 51.4339 23.1406 51.1719 23.1745 50.8913C23.2083 50.6107 23.1847 50.3129 23.0977 50.036C23.0563 49.8942 22.9985 49.7591 22.9259 49.6308C22.8898 49.5662 22.8495 49.5043 22.8065 49.4423C22.7636 49.3796 22.7176 49.3184 22.6678 49.2591C22.569 49.1397 22.4564 49.0281 22.3333 48.9188C22.2109 48.8076 22.0771 48.7023 21.9326 48.6027C21.3583 48.1967 20.801 47.8373 20.4171 47.4888C20.3194 47.4033 20.232 47.3194 20.1537 47.2418C20.0754 47.1638 20.0055 47.0932 19.945 47.0287C19.823 46.9018 19.7295 46.8171 19.6504 46.8085C19.5748 46.788 19.5144 46.8664 19.4782 47.0216C19.4425 47.1768 19.4315 47.4089 19.4581 47.6981C19.4649 47.7702 19.4741 47.8463 19.4855 47.9254Z" fill="white"></path><path d="M21.3049 54.4871C21.4634 54.4311 21.6082 54.3602 21.739 54.2729C21.9994 54.1083 22.2035 53.8729 22.3384 53.6221C22.4734 53.371 22.5403 53.1023 22.5308 52.862C22.5292 52.7366 22.5057 52.6299 22.4623 52.5377C22.419 52.4451 22.3559 52.369 22.2742 52.3075C22.1925 52.2459 22.0925 52.1996 21.975 52.1668C21.9161 52.1507 21.8538 52.1362 21.7873 52.1246C21.7207 52.113 21.65 52.1048 21.5752 52.0996C21.5003 52.0944 21.4216 52.0921 21.3391 52.0925C21.2977 52.0929 21.2555 52.0936 21.2122 52.0951C21.1692 52.0962 21.1255 52.0974 21.0806 52.0992C20.9016 52.1071 20.7074 52.125 20.4994 52.1515C20.2923 52.1757 20.0726 52.2052 19.8392 52.2436C19.7806 52.2533 19.7217 52.2634 19.662 52.2735C19.6024 52.2828 19.5423 52.2925 19.4815 52.3022C19.3595 52.322 19.2348 52.3437 19.1067 52.3664C18.8501 52.4138 18.6057 52.4604 18.3708 52.5146C18.2533 52.5414 18.1385 52.5698 18.0268 52.5989C17.915 52.6284 17.8075 52.6556 17.7026 52.6855C17.4931 52.7444 17.2966 52.8071 17.116 52.8709C17.0256 52.9034 16.9397 52.9344 16.8579 52.9657C16.7762 52.9971 16.6991 53.0288 16.6261 53.0601C16.3345 53.1863 16.1167 53.312 15.9928 53.4225C15.8689 53.5325 15.84 53.627 15.9232 53.6882C15.9974 53.7583 16.1597 53.8046 16.3839 53.8553C16.4957 53.8818 16.6249 53.905 16.7663 53.9333C16.9077 53.9617 17.0613 53.9942 17.2244 54.0345C17.389 54.0692 17.5646 54.1083 17.7474 54.1542C17.8386 54.1774 17.9321 54.2009 18.0276 54.2251C18.1233 54.2483 18.2214 54.2714 18.321 54.2957C18.7175 54.3946 19.1439 54.4882 19.5811 54.5636C19.8008 54.5983 20.0125 54.6207 20.2147 54.6296C20.4173 54.6364 20.6116 54.6267 20.7936 54.6043C20.8845 54.5927 20.9727 54.5778 21.0578 54.5588C21.1433 54.5393 21.2258 54.5147 21.3049 54.4871Z" fill="white"></path><path d="M15.9535 46.5309C15.9664 46.6287 15.9824 46.7294 16.0014 46.8324C16.0204 46.9354 16.0443 47.0384 16.0706 47.1447C16.0968 47.2507 16.1268 47.3589 16.1599 47.469C16.1766 47.5239 16.1941 47.5795 16.2124 47.6355C16.231 47.6911 16.2515 47.7459 16.272 47.8015C16.3138 47.9127 16.3568 48.0221 16.4005 48.1288C16.4226 48.1821 16.4446 48.2348 16.467 48.287C16.4784 48.3131 16.4895 48.3389 16.5009 48.3646C16.5126 48.3896 16.524 48.415 16.5358 48.4396C16.6293 48.6385 16.7259 48.8262 16.8247 48.9997C17.0262 49.3401 17.2341 49.6282 17.4473 49.8278C17.5534 49.9289 17.6579 50.0118 17.7621 50.0715C17.867 50.1297 17.9704 50.1666 18.0707 50.1801C18.2718 50.2066 18.4615 50.1394 18.6371 49.9558C18.8097 49.7856 18.945 49.5431 19.0275 49.2722C19.0685 49.1367 19.0963 48.9945 19.1092 48.8508C19.1225 48.7061 19.1206 48.559 19.1016 48.4161C19.0693 48.1224 18.9663 47.8482 18.8135 47.578C18.7751 47.5112 18.7329 47.4451 18.6877 47.3802C18.6648 47.3477 18.6417 47.3157 18.6173 47.2836C18.593 47.2515 18.5687 47.2183 18.5432 47.1862C18.4417 47.0567 18.3277 46.9305 18.2023 46.8082C17.7066 46.3111 17.2197 45.8633 16.9019 45.4539C16.5716 45.0558 16.4165 44.6975 16.2625 44.6557C16.1914 44.6229 16.1192 44.6886 16.0561 44.8367C15.9934 44.9841 15.9432 45.2103 15.9193 45.4995C15.9075 45.6443 15.9026 45.8043 15.9067 45.9779C15.9121 46.1506 15.9276 46.335 15.9535 46.5309Z" fill="white"></path><path d="M17.0213 52.3612C17.1642 52.3011 17.2957 52.2231 17.4136 52.1317C17.5322 52.0391 17.6367 51.9339 17.7249 51.8216C17.902 51.5966 18.0149 51.3432 18.0472 51.1055C18.0875 50.8596 18.0313 50.6637 17.8918 50.5159C17.8218 50.442 17.7313 50.3793 17.6215 50.3274C17.5124 50.2737 17.3851 50.2289 17.2395 50.1938C16.9468 50.1259 16.5899 50.0812 16.1706 50.064C15.9631 50.0517 15.7403 50.0457 15.5039 50.0442C15.4742 50.0442 15.4446 50.0438 15.4145 50.0438C15.3849 50.0435 15.3549 50.0431 15.3248 50.0423C15.2644 50.042 15.2036 50.0412 15.1416 50.0409C15.0181 50.0405 14.8911 50.0409 14.7607 50.042C14.6957 50.0431 14.6311 50.0442 14.5673 50.045C14.5038 50.0457 14.4411 50.0468 14.3784 50.0487C14.2533 50.052 14.1305 50.0576 14.01 50.0647C13.8899 50.0715 13.7709 50.0815 13.6569 50.0905C13.5429 50.0994 13.4311 50.1095 13.3228 50.1215C13.1061 50.145 12.9012 50.1744 12.7123 50.2069C12.5245 50.2379 12.352 50.273 12.1973 50.311C11.8882 50.3871 11.6507 50.4756 11.5104 50.5625C11.3701 50.6491 11.3241 50.7387 11.3956 50.8129C11.5184 50.9741 11.9996 51.1074 12.6173 51.3704C12.6948 51.4022 12.775 51.435 12.8579 51.4689C12.9404 51.5029 13.0251 51.5391 13.1114 51.5764C13.1973 51.6145 13.2855 51.6533 13.3752 51.6928C13.3977 51.7029 13.4201 51.713 13.4429 51.7231C13.4657 51.7328 13.4889 51.7425 13.5117 51.7526C13.5577 51.7723 13.6044 51.7921 13.6512 51.8123C13.7451 51.8522 13.8401 51.8929 13.937 51.9343C14.034 51.975 14.1309 52.0175 14.2316 52.0563C14.432 52.135 14.6372 52.2134 14.8451 52.2877C15.0557 52.3586 15.2606 52.4157 15.4583 52.4578C15.5077 52.4683 15.5563 52.4784 15.6054 52.4862C15.6544 52.494 15.7027 52.5007 15.7509 52.5067C15.8467 52.5187 15.941 52.5265 16.0326 52.5302C16.3979 52.547 16.7339 52.4892 17.0213 52.3612Z" fill="white"></path><path d="M12.6746 44.3889C12.6906 44.6061 12.7172 44.8348 12.7598 45.0703C12.9308 46.0092 13.2216 46.7917 13.5671 47.263C13.6542 47.3802 13.7439 47.4783 13.8355 47.5552C13.8811 47.594 13.9286 47.6257 13.9761 47.6522C14.024 47.6787 14.0719 47.6992 14.1206 47.7142C14.3144 47.7735 14.5136 47.7377 14.717 47.5884C15.1169 47.31 15.4175 46.7249 15.4422 46.1484C15.4514 46.0017 15.443 45.8554 15.4183 45.711C15.3947 45.5651 15.3567 45.4185 15.3031 45.2744C15.2765 45.202 15.2465 45.1304 15.213 45.0591C15.1792 44.9882 15.1446 44.9143 15.1051 44.8423C15.0659 44.7703 15.0237 44.6983 14.9785 44.627C14.9333 44.5553 14.8839 44.4856 14.8348 44.4124C14.4296 43.8422 14.0294 43.3172 13.7872 42.8608C13.7237 42.7485 13.6694 42.6414 13.6215 42.5429C13.5744 42.4432 13.536 42.3507 13.4991 42.2716C13.4626 42.1921 13.4295 42.1249 13.3965 42.0734C13.363 42.0219 13.3303 41.9861 13.2954 41.9682C13.2319 41.923 13.1486 41.9768 13.0612 42.1115C13.0175 42.179 12.973 42.2667 12.9297 42.3731C12.8875 42.4787 12.8472 42.6022 12.8107 42.7425C12.7385 43.0228 12.6796 43.372 12.6659 43.7639C12.6621 43.8624 12.6606 43.9639 12.6613 44.0684C12.6617 44.1206 12.6628 44.1736 12.6647 44.2273C12.667 44.2811 12.6704 44.3344 12.6746 44.3889Z" fill="white"></path><path d="M11.7056 49.6878C11.8854 49.7255 12.0584 49.7468 12.226 49.7472C12.3944 49.7464 12.5559 49.727 12.7091 49.6875C13.3146 49.5475 13.7921 49.0796 13.9376 48.6221C14.0216 48.3844 13.9992 48.1832 13.8871 48.0146C13.859 47.9724 13.8255 47.9321 13.7864 47.8937C13.7472 47.8552 13.7023 47.8194 13.6541 47.7832C13.5564 47.7116 13.4378 47.647 13.3002 47.588C12.7528 47.35 11.9059 47.1944 10.8834 47.0253C10.6284 46.9828 10.3805 46.9477 10.1403 46.9223C10.0802 46.9163 10.0206 46.9104 9.96202 46.9044C9.90387 46.8984 9.84609 46.8928 9.78907 46.8876C9.67466 46.8775 9.5629 46.8693 9.45381 46.863C9.01554 46.8395 8.63048 46.8376 8.31157 46.8622C8.1523 46.8742 8.01052 46.8921 7.88926 46.9148C7.76876 46.9369 7.66879 46.9637 7.59201 46.9951C7.43844 47.0574 7.37839 47.1373 7.43502 47.2231C7.45707 47.269 7.50268 47.3156 7.56768 47.366C7.6323 47.4164 7.71555 47.4709 7.81286 47.5309C7.91055 47.591 8.02154 47.6582 8.14432 47.7317C8.26823 47.8041 8.40241 47.8847 8.54306 47.9758C9.11551 48.3221 9.80199 48.8262 10.5793 49.2497C10.6751 49.3046 10.7728 49.352 10.8686 49.3971C10.9648 49.4419 11.0594 49.483 11.1533 49.5203C11.2476 49.5569 11.3392 49.5912 11.4319 49.6184C11.5243 49.6457 11.6155 49.6688 11.7056 49.6878Z" fill="white"></path><path d="M10.4021 44.4195C10.4409 44.465 10.4812 44.5053 10.5226 44.5396C10.5652 44.5736 10.6093 44.602 10.6545 44.6244C10.8358 44.7147 11.0388 44.7124 11.265 44.599C11.7047 44.3937 12.1061 43.8635 12.2282 43.3015C12.2453 43.2298 12.2578 43.1582 12.2666 43.0854C12.2749 43.013 12.2791 42.9403 12.281 42.866C12.2837 42.7179 12.2704 42.5678 12.2426 42.4171C12.2293 42.3413 12.2103 42.2667 12.1913 42.1895C12.1719 42.1126 12.1487 42.035 12.1229 41.9577C12.0708 41.8025 12.0035 41.6487 11.9313 41.489C11.8944 41.4099 11.8568 41.3316 11.8192 41.2547C11.7815 41.1778 11.7431 41.1024 11.7078 41.0259C11.6359 40.8744 11.5641 40.7274 11.4953 40.586C11.3653 40.2979 11.244 40.033 11.1676 39.7859C11.146 39.7255 11.1262 39.6665 11.108 39.6098C11.0901 39.5527 11.073 39.4986 11.0593 39.4448C11.0319 39.3385 11.0076 39.2422 10.9859 39.1575C10.9635 39.0732 10.9422 39.0019 10.9187 38.9456C10.8955 38.8888 10.8708 38.847 10.8388 38.8239C10.7841 38.769 10.6925 38.8079 10.583 38.9261C10.5283 38.9855 10.4694 39.0642 10.4082 39.162C10.3778 39.2105 10.3466 39.2642 10.3162 39.3217C10.2858 39.3792 10.2557 39.4407 10.2257 39.5068C10.1657 39.6385 10.1071 39.7878 10.052 39.952C10.0246 40.0341 9.99803 40.1203 9.97294 40.2102C9.94824 40.2998 9.92657 40.3919 9.90566 40.4882C9.86461 40.6804 9.82926 40.8875 9.80493 41.1058C9.78327 41.3222 9.77148 41.551 9.77148 41.7906C9.77833 42.7432 9.92847 43.5642 10.1866 44.0866C10.2531 44.2172 10.3246 44.3288 10.4021 44.4195Z" fill="white"></path><path d="M7.67576 46.0525C7.7609 46.0961 7.84833 46.1331 7.93348 46.167C8.10453 46.2338 8.27254 46.2827 8.43675 46.3118C8.51847 46.3267 8.60096 46.3353 8.6823 46.3387C8.76364 46.3424 8.84385 46.3409 8.92253 46.3338C9.54554 46.295 10.0929 45.917 10.3183 45.4882C10.4422 45.2677 10.4548 45.0666 10.3727 44.8819C10.3521 44.8356 10.3259 44.7904 10.2936 44.7464C10.2624 44.7016 10.2256 44.6572 10.1838 44.6139C10.0994 44.5274 9.99369 44.4441 9.86788 44.3635C9.37031 44.037 8.56408 43.7415 7.58453 43.4052C7.34126 43.3202 7.10178 43.2452 6.86877 43.1802C6.63843 43.1134 6.41606 43.0548 6.20281 43.0063C6.09638 42.9821 5.99147 42.9601 5.89112 42.9399C5.79115 42.9194 5.69384 42.9007 5.59995 42.8847C5.4118 42.8522 5.23656 42.8291 5.0773 42.8142C4.99785 42.8067 4.92221 42.8015 4.85113 42.7985C4.78005 42.7951 4.71467 42.7936 4.65309 42.7944C4.53069 42.7959 4.42692 42.8056 4.34596 42.8235C4.18365 42.8593 4.11105 42.9276 4.15172 43.0216C4.16616 43.0701 4.20189 43.125 4.25625 43.1858C4.31137 43.2463 4.38397 43.3134 4.46987 43.3892C4.55616 43.4638 4.65423 43.5489 4.76218 43.6426C4.8154 43.69 4.87356 43.7377 4.93209 43.7889C4.99101 43.84 5.05145 43.8937 5.11303 43.9501C5.2396 44.059 5.3677 44.1818 5.50721 44.3076C5.64519 44.4341 5.78773 44.5688 5.93483 44.708C6.08536 44.8445 6.24045 44.9852 6.39971 45.1274C6.47878 45.199 6.56164 45.2684 6.64565 45.3382C6.72927 45.408 6.81404 45.4774 6.89994 45.5465C7.07024 45.6856 7.24623 45.8047 7.4188 45.9088C7.50471 45.961 7.59061 46.0088 7.67576 46.0525Z" fill="white"></path><path d="M7.55135 37.3936C7.49091 37.6037 7.44073 37.8265 7.3993 38.0623C7.23965 39.0019 7.24421 39.836 7.40728 40.3946C7.44985 40.533 7.50155 40.6547 7.56275 40.7569C7.59316 40.8081 7.62585 40.8543 7.6612 40.8954C7.67868 40.9159 7.69693 40.9353 7.71555 40.9532C7.73456 40.9708 7.75471 40.9872 7.77485 41.0021C7.9383 41.1211 8.139 41.1525 8.3819 41.0786C8.85134 40.9499 9.33864 40.4946 9.55531 39.9617C9.58458 39.8942 9.60928 39.8255 9.63019 39.7557C9.65148 39.6856 9.66972 39.6136 9.68379 39.5412C9.71191 39.3956 9.72446 39.246 9.72294 39.0934C9.72256 39.0549 9.72104 39.0169 9.71952 38.9781C9.71838 38.9389 9.7161 38.8997 9.71306 38.8601C9.70697 38.781 9.69785 38.7012 9.68531 38.6209C9.67276 38.5403 9.65718 38.4594 9.63817 38.3776C9.62069 38.2952 9.6013 38.2112 9.5785 38.1273C9.48461 37.7944 9.393 37.4694 9.30747 37.1652C9.26794 37.0126 9.23069 36.866 9.19762 36.726C9.18052 36.6562 9.16797 36.5868 9.15543 36.5197C9.14326 36.4521 9.13262 36.3868 9.12388 36.323C9.07712 36.0719 9.0699 35.8469 9.0547 35.6741C9.04748 35.5875 9.03835 35.5136 9.02543 35.4539C9.01327 35.3938 8.99578 35.3491 8.96841 35.3207C8.92394 35.2576 8.82701 35.2804 8.69853 35.3785C8.63429 35.4274 8.56245 35.4953 8.48529 35.5812C8.4085 35.667 8.32564 35.7707 8.24429 35.8901C8.16219 36.0099 8.07856 36.1465 7.9957 36.2991C7.91359 36.4517 7.82997 36.6212 7.75737 36.8029C7.68363 36.985 7.61406 37.1824 7.55135 37.3936Z" fill="white"></path><path d="M4.5925 41.9085C4.63089 41.9372 4.66928 41.9644 4.70767 41.9909C4.74644 42.0171 4.78598 42.0417 4.82513 42.0652C4.98249 42.1596 5.13986 42.2357 5.29723 42.2917C5.37591 42.3197 5.45422 42.3428 5.53328 42.3604C5.61272 42.3775 5.69217 42.3891 5.77161 42.3958C6.39348 42.4611 6.99862 42.1801 7.29473 41.7958C7.45476 41.5995 7.50151 41.4032 7.45248 41.208C7.4464 41.1838 7.43841 41.1592 7.42967 41.1349C7.42093 41.1103 7.41104 41.0853 7.39964 41.0606C7.37683 41.011 7.34795 40.9617 7.31374 40.9121C7.24532 40.8129 7.15523 40.7136 7.04461 40.6132C6.61166 40.2076 5.8693 39.7811 4.96273 39.2848C4.73808 39.1597 4.51343 39.0467 4.29639 38.9426C4.082 38.8373 3.8718 38.7429 3.66996 38.6593C3.4666 38.5761 3.27768 38.5007 3.09751 38.4377C2.91771 38.3742 2.74894 38.3216 2.59424 38.2802C2.43915 38.2391 2.30155 38.2078 2.18029 38.1888C2.05904 38.1694 1.95564 38.1619 1.8724 38.166C1.70629 38.1738 1.62266 38.2291 1.64661 38.3287C1.65231 38.3791 1.67854 38.4388 1.72073 38.5082C1.76331 38.5776 1.82451 38.6556 1.89559 38.7448C2.03927 38.9224 2.22515 39.1429 2.43155 39.406C2.48438 39.4706 2.5376 39.5381 2.5912 39.6083C2.64517 39.6784 2.69915 39.7516 2.75693 39.8251C2.87134 39.9729 2.98842 40.1296 3.10967 40.2912C3.35751 40.6117 3.62055 40.9528 3.91475 41.2804C3.98774 41.3625 4.06072 41.4416 4.13484 41.5159C4.21048 41.5894 4.28651 41.6592 4.36291 41.7249C4.43893 41.7902 4.51571 41.8514 4.5925 41.9085Z" fill="white"></path><path d="M5.56882 36.9488C5.70946 37.0936 5.9018 37.1581 6.15419 37.126C6.63922 37.0779 7.19875 36.7114 7.50512 36.2237C7.54579 36.1621 7.58114 36.0991 7.61535 36.0334C7.64918 35.9677 7.67921 35.9002 7.70582 35.8311C7.75866 35.6927 7.79743 35.5475 7.82252 35.3972C7.8343 35.3222 7.84684 35.2442 7.85406 35.1654C7.86205 35.0867 7.86661 35.0065 7.86813 34.9251C7.87003 34.8438 7.86813 34.7613 7.86433 34.6777C7.86205 34.5934 7.85711 34.5079 7.8495 34.421C7.81529 34.0773 7.78222 33.7418 7.75105 33.428C7.73889 33.2712 7.72787 33.1201 7.71988 32.9768C7.71532 32.9052 7.71456 32.8346 7.71456 32.7664C7.71456 32.6981 7.7157 32.6316 7.71798 32.5675C7.71836 32.5036 7.71988 32.4417 7.72217 32.3824C7.72369 32.3529 7.72521 32.3238 7.72635 32.295C7.72901 32.2663 7.73129 32.2383 7.73357 32.2111C7.74459 32.1021 7.75447 32.0032 7.76322 31.9163C7.7712 31.8297 7.77576 31.7555 7.77272 31.6946C7.77082 31.6338 7.7617 31.586 7.73965 31.5539C7.70696 31.4842 7.60737 31.4905 7.46369 31.5651C7.39185 31.6025 7.30898 31.6573 7.21813 31.729C7.1729 31.7648 7.12501 31.8047 7.07635 31.8487C7.02808 31.8928 6.97828 31.9405 6.92735 31.9928C6.82548 32.0969 6.71904 32.2174 6.61071 32.354C6.50238 32.4906 6.39139 32.6432 6.28761 32.81C6.1827 32.9772 6.07893 33.1597 5.9801 33.3574C5.88393 33.5541 5.79537 33.7649 5.71326 33.9903C5.39169 34.8885 5.24914 35.7114 5.31262 36.289C5.34873 36.5756 5.43198 36.8025 5.56882 36.9488Z" fill="white"></path><path d="M1.89344 36.8402C1.95464 36.9257 2.01774 37.007 2.08122 37.0846C2.14508 37.1622 2.2097 37.2358 2.27546 37.3048C2.3416 37.3738 2.4066 37.4395 2.47692 37.4988C2.61566 37.6182 2.75744 37.7197 2.90303 37.8015C2.97563 37.8421 3.04937 37.878 3.12349 37.9089C3.19762 37.9399 3.27478 37.9642 3.35156 37.9843C3.95328 38.1534 4.59872 37.9783 4.95755 37.6492C5.1495 37.4828 5.22971 37.2977 5.21488 37.0973C5.20386 36.8951 5.09971 36.6771 4.91801 36.4424C4.56185 35.97 3.90615 35.424 3.09955 34.7822C2.89999 34.6214 2.69891 34.4717 2.50315 34.3325C2.31043 34.1926 2.12037 34.0642 1.93602 33.9474C1.75052 33.831 1.57681 33.7254 1.4107 33.6325C1.24497 33.5396 1.0876 33.4593 0.943158 33.3925C0.870556 33.359 0.801375 33.3291 0.735616 33.3026C0.670236 33.2757 0.609038 33.2526 0.55088 33.2328C0.434945 33.1933 0.334215 33.1683 0.25173 33.1582C0.0867605 33.138 -0.00522716 33.178 0.000474554 33.2802C-0.00294648 33.3306 0.0122581 33.394 0.041907 33.4694C0.0730764 33.5448 0.11831 33.6321 0.173046 33.7317C0.228543 33.8306 0.291642 33.9433 0.361203 34.0672C0.378308 34.0982 0.395793 34.1299 0.413659 34.1624C0.431904 34.1948 0.45091 34.2277 0.469916 34.2616C0.507927 34.3292 0.546319 34.3997 0.58471 34.4736C0.625382 34.546 0.665675 34.6217 0.706727 34.6997C0.747399 34.7781 0.788071 34.8591 0.832165 34.9412C0.918831 35.1061 1.00702 35.2804 1.09786 35.4599C1.14234 35.5502 1.19251 35.6401 1.24117 35.7319C1.29058 35.8233 1.34038 35.9159 1.39131 36.0095C1.49128 36.1969 1.60342 36.3838 1.71783 36.5708C1.77523 36.6644 1.83377 36.754 1.89344 36.8402Z" fill="white"></path><path d="M3.10932 33.4474C3.2283 33.5235 3.35792 33.5821 3.48944 33.6235C3.75324 33.7063 4.02882 33.7187 4.27171 33.6616C4.52563 33.6086 4.70352 33.4839 4.8168 33.3044C4.87381 33.2145 4.91411 33.1108 4.94033 32.9943C4.96884 32.8775 4.98329 32.7481 4.98443 32.6074C4.98595 32.4667 4.97226 32.3156 4.9544 32.1525C4.93539 31.9898 4.90232 31.8174 4.86317 31.6349C4.8263 31.4521 4.77917 31.2603 4.72329 31.0602C4.67197 30.8595 4.61268 30.6505 4.5454 30.4344C4.48268 30.2176 4.41388 30.0113 4.33785 29.8169C4.26525 29.6217 4.19037 29.4377 4.11016 29.2668C4.09002 29.2239 4.06987 29.1821 4.04973 29.1407C4.02996 29.0993 4.01095 29.059 3.99119 29.0194C3.95204 28.9399 3.91212 28.8642 3.87221 28.7918C3.8323 28.7194 3.79163 28.6503 3.75134 28.585C3.73119 28.5526 3.71104 28.5209 3.6909 28.4899C3.67151 28.4589 3.65213 28.4291 3.63312 28.4003C3.32599 27.9383 3.03596 27.7268 2.92725 27.8835C2.86301 27.9551 2.83146 28.0992 2.80067 28.2992C2.79345 28.3492 2.78547 28.4026 2.77748 28.4593C2.7733 28.4876 2.76912 28.5168 2.76494 28.547C2.76114 28.5768 2.75734 28.6074 2.75354 28.6391C2.73795 28.7649 2.71857 28.9026 2.69196 29.0508C2.68093 29.125 2.66801 29.2015 2.65395 29.2806C2.6414 29.3594 2.62772 29.4407 2.61251 29.5243C2.58287 29.6915 2.54713 29.8676 2.5133 30.0505C2.48175 30.2333 2.44869 30.4232 2.41714 30.6192C2.40953 30.668 2.40079 30.7173 2.39433 30.7669C2.38787 30.8166 2.3814 30.8662 2.37532 30.9162C2.36278 31.0162 2.351 31.1173 2.34035 31.2196C2.25825 32.0361 2.39357 32.7342 2.78965 33.1686C2.88316 33.2779 2.99187 33.3712 3.10932 33.4474Z" fill="white"></path><path d="M34.3676 53.1866C34.4147 53.2053 34.4653 53.2195 34.5192 53.2288C34.5462 53.2333 34.574 53.237 34.6025 53.2392C34.631 53.2411 34.6606 53.2415 34.6907 53.2411C34.8115 53.2389 34.9442 53.2187 35.0871 53.1825C35.1586 53.1642 35.2323 53.1426 35.3087 53.1161C35.3848 53.0881 35.4631 53.0564 35.5433 53.0209C35.6235 52.9855 35.7056 52.9463 35.7896 52.9038C35.8314 52.8825 35.8736 52.8605 35.9165 52.8373C35.9591 52.8146 36.0021 52.7907 36.0454 52.7642C36.2187 52.6612 36.397 52.5451 36.5787 52.4175C36.6011 52.4015 36.6239 52.3854 36.6467 52.3694C36.6695 52.3526 36.6923 52.3354 36.7152 52.3183C36.7608 52.2839 36.8068 52.2488 36.8524 52.213C36.944 52.1414 37.0364 52.0675 37.1291 51.991C37.1755 51.9526 37.2207 51.9145 37.2648 51.8757C37.3089 51.8369 37.3522 51.7966 37.3944 51.757C37.4788 51.6772 37.559 51.5977 37.6354 51.5178C37.7118 51.4383 37.784 51.3589 37.8525 51.2801C37.9209 51.201 37.9851 51.1197 38.0456 51.0413C38.1668 50.8834 38.2725 50.7297 38.3637 50.583C38.3865 50.5465 38.4086 50.5103 38.4295 50.4741C38.4504 50.4375 38.4705 50.4017 38.4895 50.3666C38.5279 50.2957 38.5625 50.2274 38.5937 50.1617C38.7184 49.8983 38.7879 49.6763 38.8077 49.518C38.8275 49.3602 38.7974 49.2662 38.7191 49.2602C38.642 49.2419 38.5249 49.2908 38.366 49.3695C38.2869 49.4102 38.1968 49.4531 38.0961 49.5005C37.9958 49.5475 37.8844 49.5975 37.7631 49.6453C37.2811 49.8453 36.6331 49.9998 35.9511 50.1905C35.6098 50.2812 35.3004 50.4099 35.0313 50.5636C34.8967 50.642 34.7724 50.7308 34.6599 50.8301C34.5474 50.9264 34.4463 51.0338 34.3584 51.1529C34.0046 51.6119 33.8586 52.2571 33.9878 52.7175C34.0483 52.959 34.179 53.1112 34.3676 53.1866Z" fill="white"></path><path d="M39.4086 56.148C39.3509 56.0943 39.2889 56.0387 39.2231 55.982C39.1901 55.9536 39.1562 55.9252 39.1213 55.8961C39.0859 55.867 39.0498 55.8372 39.0133 55.8069C38.8651 55.6868 38.702 55.5625 38.5252 55.4375C38.4367 55.3744 38.3451 55.3129 38.25 55.2487C38.155 55.1838 38.0569 55.1192 37.9558 55.0546C37.8547 54.9901 37.7506 54.9259 37.6438 54.8628C37.5902 54.8315 37.5358 54.7998 37.4815 54.7677C37.4267 54.7352 37.3708 54.7028 37.315 54.6707C37.2024 54.6065 37.0922 54.5445 36.9846 54.4852C36.9307 54.4557 36.8775 54.4266 36.8246 54.3979C36.7984 54.3837 36.7722 54.3695 36.7459 54.3553C36.7197 54.3408 36.6939 54.3266 36.668 54.3121C36.4616 54.1986 36.2651 54.0956 36.0784 54.0053C36.0317 53.9833 35.9857 53.9605 35.9405 53.9381C35.8952 53.9161 35.8504 53.8949 35.8063 53.8743C35.7181 53.8337 35.6326 53.796 35.5497 53.7624C35.4668 53.7288 35.3863 53.6986 35.3087 53.6721C35.2312 53.6445 35.1563 53.6198 35.0841 53.5997C34.9396 53.5594 34.8066 53.5355 34.6846 53.5299C34.6542 53.5284 34.6245 53.528 34.5952 53.5292C34.5664 53.5295 34.5378 53.5306 34.5105 53.5333C34.4554 53.5385 34.4033 53.5486 34.3546 53.5635C34.1589 53.6236 34.0118 53.765 33.9228 54.0012C33.74 54.4494 33.8069 55.1028 34.1836 55.5905C34.2763 55.7166 34.3885 55.8323 34.5181 55.9379C34.6477 56.0409 34.7952 56.1331 34.9583 56.2159C35.2844 56.385 35.6744 56.4992 36.1115 56.5805C36.9862 56.7346 37.8426 56.7746 38.51 56.8656C38.6777 56.8817 38.8335 56.9022 38.9761 56.9227C39.1186 56.9425 39.2486 56.9645 39.3626 56.9764C39.5915 57.0029 39.7602 57.013 39.8537 56.9716C39.9533 56.9417 39.9583 56.8432 39.88 56.6984C39.8013 56.5544 39.6394 56.3637 39.4086 56.148Z" fill="white"></path><path d="M38.5247 51.3626C38.4871 51.5021 38.4643 51.645 38.4563 51.7861C38.4404 52.0682 38.4841 52.3414 38.5878 52.5589C38.6897 52.7903 38.8448 52.9168 39.0432 52.9582C39.1424 52.9791 39.2523 52.9784 39.3713 52.9586C39.4902 52.9384 39.6172 52.8937 39.7518 52.8339C39.819 52.8037 39.8878 52.7694 39.9582 52.7306C39.9935 52.7112 40.0289 52.6907 40.065 52.6694C40.1007 52.647 40.1368 52.6239 40.1733 52.5992C40.3189 52.5018 40.4694 52.3884 40.623 52.2615C40.9286 52.0007 41.2452 51.6854 41.555 51.3167C42.1757 50.5823 42.5239 49.8289 42.6764 49.268C42.7528 48.9874 42.7824 48.7564 42.7744 48.5974C42.7661 48.4385 42.7201 48.3511 42.6421 48.3586C42.5627 48.3537 42.4563 48.4217 42.3141 48.5265C42.2788 48.553 42.2404 48.5803 42.2001 48.6094C42.1594 48.6385 42.1164 48.6687 42.0712 48.7008C41.9807 48.7642 41.88 48.8325 41.769 48.9004C41.3296 49.1788 40.7188 49.4385 40.0817 49.7412C39.922 49.8151 39.7715 49.896 39.6316 49.9848C39.4914 50.0718 39.3606 50.1625 39.2424 50.2636C39.1831 50.314 39.1269 50.3662 39.0736 50.4207C39.0204 50.4756 38.9699 50.5289 38.9231 50.5864C38.8292 50.7006 38.7483 50.8241 38.6829 50.9562C38.6145 51.0842 38.5624 51.2223 38.5247 51.3626Z" fill="white"></path><path d="M44.5282 55.0278C43.9976 54.6815 43.1788 54.2737 42.2054 53.9255C41.7184 53.7531 41.2699 53.5945 40.8708 53.4788C40.6705 53.4176 40.4823 53.3669 40.3071 53.3292C40.2634 53.3199 40.2204 53.3109 40.1782 53.3031C40.136 53.2941 40.0942 53.2863 40.0535 53.2788C39.9722 53.2643 39.8943 53.2534 39.8198 53.246C39.6704 53.2307 39.5354 53.2318 39.4142 53.2445C39.2929 53.2568 39.1861 53.2855 39.0949 53.3322C38.9124 53.4251 38.7923 53.5904 38.7452 53.8352C38.6935 54.0699 38.7125 54.3461 38.8014 54.6162C38.8459 54.7513 38.9079 54.8853 38.9877 55.0118C39.0671 55.1375 39.1641 55.2543 39.2777 55.3585C39.391 55.4667 39.5218 55.5615 39.6677 55.6432C39.7407 55.6839 39.8179 55.7227 39.8985 55.7555C39.979 55.7883 40.063 55.8182 40.1508 55.8451C40.3261 55.8981 40.5158 55.941 40.7165 55.9678C40.9172 55.9932 41.1296 56.007 41.3524 56.0096C41.7964 56.0089 42.2335 55.9895 42.6414 55.9585C42.7436 55.9518 42.8443 55.9451 42.9428 55.9384C43.0412 55.9316 43.1374 55.9227 43.2313 55.916C43.4195 55.9018 43.5992 55.8913 43.768 55.8865C43.936 55.8738 44.093 55.8675 44.2371 55.8634C44.3093 55.8615 44.3781 55.8596 44.4435 55.8581C44.5089 55.8566 44.5704 55.8551 44.6278 55.8514C44.8578 55.8387 45.0258 55.8201 45.111 55.7633C45.2037 55.7171 45.1915 55.6189 45.0889 55.4898C44.9863 55.3614 44.7932 55.201 44.5282 55.0278Z" fill="white"></path><path d="M43.0903 51.6305C43.1606 51.7347 43.2397 51.8134 43.3267 51.8656C43.4134 51.9171 43.5077 51.9436 43.6091 51.9474C43.7106 51.9511 43.8186 51.9317 43.9322 51.8918C43.9893 51.8723 44.047 51.8459 44.1056 51.8141C44.1645 51.7828 44.2242 51.7462 44.285 51.7052C44.3458 51.6641 44.4078 51.6182 44.4701 51.5682C44.5013 51.5432 44.5328 51.5171 44.5644 51.4899C44.5959 51.4622 44.6271 51.4328 44.6586 51.4025C44.7848 51.282 44.9133 51.1447 45.0422 50.9939C45.1703 50.8409 45.2972 50.6704 45.4242 50.4902C45.4557 50.445 45.4873 50.3991 45.5188 50.3525C45.55 50.3047 45.5808 50.2565 45.6116 50.2073C45.6732 50.1091 45.7344 50.0088 45.7948 49.9058C45.9168 49.7017 46.0191 49.4931 46.108 49.2927C46.1525 49.1923 46.1932 49.0938 46.2304 48.9967C46.2677 48.9001 46.3 48.802 46.33 48.7079C46.3893 48.5191 46.4361 48.3392 46.471 48.1709C46.4889 48.0873 46.503 48.0045 46.5144 47.9254C46.5261 47.8463 46.5349 47.7702 46.5417 47.6981C46.5683 47.4089 46.5573 47.1768 46.5216 47.0216C46.4858 46.8664 46.425 46.788 46.3494 46.8085C46.2703 46.8171 46.1768 46.9018 46.0548 47.0287C45.9944 47.0932 45.9244 47.1638 45.8461 47.2418C45.7678 47.3194 45.6804 47.4033 45.5827 47.4888C45.1984 47.8377 44.6415 48.1971 44.0672 48.6027C43.9227 48.7023 43.7889 48.8076 43.6665 48.9188C43.5434 49.0277 43.4309 49.1393 43.332 49.2591C43.2826 49.3188 43.2363 49.3796 43.1933 49.4423C43.1503 49.5043 43.1101 49.5662 43.0739 49.6308C43.0013 49.7595 42.9436 49.8946 42.9021 50.036C42.8151 50.3129 42.7915 50.6107 42.8253 50.8913C42.8592 51.1719 42.95 51.4339 43.0903 51.6305Z" fill="white"></path><path d="M50.0067 53.4225C49.8832 53.3124 49.665 53.1866 49.3734 53.0601C49.3004 53.0284 49.2233 52.9971 49.1416 52.9657C49.0598 52.9344 48.9743 52.9034 48.8835 52.8709C48.7025 52.8071 48.5064 52.7444 48.2969 52.6855C48.192 52.6556 48.0848 52.6284 47.9727 52.5989C47.8609 52.5694 47.7462 52.5414 47.6287 52.5146C47.3938 52.4604 47.1494 52.4138 46.8928 52.3664C46.7651 52.3437 46.64 52.322 46.518 52.3022C46.4572 52.2925 46.3971 52.2828 46.3375 52.2735C46.2778 52.2634 46.2185 52.2537 46.1603 52.2436C45.9269 52.2056 45.7072 52.1757 45.5001 52.1515C45.2921 52.125 45.0979 52.1071 44.9189 52.0992C44.874 52.0974 44.8303 52.0962 44.7873 52.0951C44.744 52.0936 44.7018 52.0929 44.6604 52.0925C44.5779 52.0921 44.4988 52.0944 44.4243 52.0996C44.3495 52.1048 44.2788 52.113 44.2122 52.1246C44.1457 52.1362 44.0834 52.1507 44.0245 52.1668C43.907 52.1996 43.807 52.2459 43.7253 52.3075C43.6436 52.3686 43.5805 52.4451 43.5371 52.5377C43.4938 52.6295 43.4699 52.7362 43.4687 52.862C43.4588 53.1019 43.5261 53.3706 43.6611 53.6221C43.796 53.8732 43.9997 54.1083 44.2605 54.2729C44.3913 54.3602 44.5365 54.4315 44.6946 54.4871C44.7737 54.5147 44.8565 54.5393 44.9417 54.5591C45.0268 54.5782 45.115 54.5931 45.2059 54.6046C45.3879 54.627 45.5818 54.6371 45.7848 54.63C45.987 54.6211 46.1987 54.5987 46.4184 54.564C46.8555 54.4886 47.2824 54.3949 47.6785 54.296C47.7781 54.2722 47.8758 54.2486 47.9719 54.2255C48.0674 54.2013 48.1609 54.1777 48.2521 54.1546C48.4349 54.1091 48.6105 54.0695 48.7751 54.0348C48.9382 53.9945 49.0921 53.9617 49.2332 53.9337C49.3746 53.9053 49.5038 53.8822 49.6156 53.8557C49.8398 53.805 50.0021 53.7583 50.0763 53.6885C50.1595 53.627 50.1306 53.5325 50.0067 53.4225Z" fill="white"></path><path d="M46.9735 49.2725C47.0556 49.5431 47.1909 49.7856 47.3639 49.9561C47.5395 50.1397 47.7288 50.2069 47.9302 50.1804C48.0306 50.167 48.134 50.13 48.2389 50.0718C48.343 50.0121 48.448 49.9289 48.5536 49.8281C48.7665 49.6285 48.9744 49.3404 49.1763 49.0001C49.2751 48.8262 49.3716 48.6385 49.4651 48.44C49.4765 48.415 49.4883 48.39 49.5001 48.365C49.5111 48.3392 49.5225 48.3135 49.5339 48.2874C49.5564 48.2355 49.5784 48.1825 49.6005 48.1291C49.6442 48.0224 49.6871 47.9134 49.7289 47.8019C49.7498 47.7463 49.77 47.6914 49.7886 47.6358C49.8072 47.5798 49.8247 47.5246 49.8411 47.4694C49.8745 47.3593 49.9042 47.2511 49.9304 47.1451C49.9566 47.0388 49.9806 46.9358 49.9996 46.8328C50.0186 46.7298 50.0342 46.629 50.0475 46.5312C50.0733 46.3353 50.0889 46.151 50.0939 45.979C50.098 45.8051 50.0931 45.645 50.0813 45.5006C50.0577 45.2114 50.0072 44.9852 49.9445 44.8378C49.8814 44.6897 49.8091 44.624 49.7381 44.6568C49.5841 44.6986 49.4294 45.0569 49.0987 45.455C48.7809 45.8644 48.2944 46.3122 47.7983 46.8093C47.6729 46.9317 47.5589 47.0574 47.4574 47.1873C47.4319 47.2194 47.4076 47.2529 47.3833 47.2847C47.3589 47.3168 47.3354 47.3488 47.3129 47.3813C47.2677 47.4462 47.2255 47.5123 47.1871 47.5791C47.0343 47.8493 46.9313 48.1235 46.899 48.4172C46.88 48.5601 46.8781 48.7072 46.8914 48.852C46.9043 48.9949 46.9324 49.1374 46.9735 49.2725Z" fill="white"></path><path d="M54.489 50.5618C54.3484 50.4745 54.1112 50.386 53.8021 50.3103C53.6474 50.2722 53.4749 50.2371 53.2871 50.2062C53.0982 50.1737 52.8933 50.1442 52.6766 50.1207C52.5683 50.1088 52.4565 50.0987 52.3425 50.0897C52.2281 50.0808 52.1095 50.0711 51.9894 50.064C51.8689 50.0569 51.7461 50.0517 51.6211 50.0479C51.5587 50.0461 51.4956 50.0449 51.4321 50.0442C51.3683 50.0431 51.3037 50.042 51.2387 50.0412C51.1087 50.0401 50.9817 50.0393 50.8578 50.0401C50.7962 50.0408 50.735 50.0412 50.6746 50.0416C50.6445 50.042 50.6145 50.0423 50.5849 50.0431C50.5548 50.0431 50.5252 50.0435 50.4955 50.0435C50.2591 50.0449 50.0364 50.0509 49.8288 50.0632C49.4092 50.0804 49.0526 50.1248 48.7599 50.1931C48.6143 50.2282 48.487 50.2733 48.3779 50.3267C48.2681 50.3786 48.1776 50.4412 48.1077 50.5151C47.9682 50.6629 47.9119 50.8588 47.9522 51.1047C47.9845 51.3428 48.0978 51.5962 48.2745 51.8208C48.3631 51.9332 48.4676 52.0384 48.5858 52.1309C48.7037 52.2224 48.8352 52.3007 48.9781 52.3604C49.2659 52.4884 49.6015 52.5463 49.9672 52.5284C50.0588 52.5246 50.1527 52.5164 50.2488 52.5048C50.2967 52.4989 50.3454 52.4922 50.3944 52.4843C50.4435 52.4765 50.4921 52.4664 50.5415 52.456C50.7392 52.4138 50.9441 52.3563 51.1547 52.2858C51.363 52.2112 51.5678 52.1328 51.7682 52.0544C51.8689 52.016 51.9658 51.9735 52.0627 51.9324C52.1593 51.8914 52.2547 51.8503 52.3486 51.8104C52.3953 51.7902 52.4421 51.7705 52.4881 51.7507C52.5113 51.741 52.5341 51.7309 52.5569 51.7212C52.5797 51.7111 52.6021 51.701 52.6246 51.691C52.7143 51.6514 52.8024 51.6126 52.8884 51.5745C52.9746 51.5372 53.059 51.501 53.1419 51.4671C53.2244 51.4331 53.3046 51.4003 53.3825 51.3686C54.0002 51.1055 54.4814 50.9723 54.6042 50.8111C54.6753 50.7379 54.6293 50.6487 54.489 50.5618Z" fill="white"></path><path d="M51.2829 47.5884C51.4863 47.7377 51.6855 47.7735 51.8793 47.7142C51.928 47.6992 51.9759 47.6783 52.0238 47.6522C52.0717 47.6257 52.1192 47.594 52.1644 47.5552C52.2564 47.4783 52.3461 47.3798 52.4328 47.263C52.7783 46.7917 53.0691 46.0092 53.2401 45.0703C53.2823 44.8352 53.3093 44.6061 53.3253 44.3889C53.3291 44.3344 53.3325 44.2811 53.3348 44.2277C53.3367 44.174 53.3378 44.121 53.3382 44.0687C53.3394 43.9642 53.3375 43.8624 53.3337 43.7642C53.32 43.372 53.2611 43.0228 53.1888 42.7429C53.1523 42.6026 53.112 42.4787 53.0699 42.3734C53.0269 42.2671 52.982 42.1794 52.9383 42.1119C52.8509 41.9771 52.7673 41.9234 52.7042 41.9686C52.6692 41.9865 52.6365 42.0227 52.6031 42.0738C52.57 42.1253 52.5369 42.1925 52.5004 42.2719C52.464 42.3511 52.4252 42.4436 52.378 42.5432C52.3302 42.6417 52.2758 42.7488 52.2123 42.8612C51.9702 43.3175 51.5699 43.8426 51.1647 44.4128C51.1153 44.4859 51.0663 44.5557 51.021 44.6274C50.9758 44.6986 50.9336 44.7706 50.8945 44.8427C50.8549 44.9143 50.8203 44.9882 50.7865 45.0595C50.7531 45.1308 50.7226 45.2028 50.6964 45.2748C50.6432 45.4188 50.6052 45.5655 50.5812 45.7114C50.5565 45.8562 50.5482 46.0021 50.5573 46.1487C50.5824 46.7249 50.8831 47.31 51.2829 47.5884Z" fill="white"></path><path d="M58.408 46.9951C58.3312 46.9638 58.2312 46.9369 58.1107 46.9149C57.9895 46.8921 57.8477 46.8742 57.6884 46.8623C57.3695 46.838 56.9845 46.8399 56.5462 46.863C56.4371 46.8693 56.3253 46.8776 56.2109 46.8876C56.1539 46.8929 56.0961 46.8985 56.038 46.9044C55.9791 46.9104 55.9198 46.9164 55.8597 46.9223C55.6191 46.9477 55.3713 46.9828 55.1166 47.0253C54.0941 47.1944 53.2476 47.3496 52.6998 47.5881C52.5622 47.647 52.4436 47.7116 52.3459 47.7832C52.2973 47.8194 52.2528 47.8556 52.2136 47.8937C52.1745 47.9321 52.1407 47.972 52.1129 48.0146C52.0008 48.1833 51.9787 48.3844 52.0624 48.6221C52.2083 49.0796 52.6857 49.5475 53.2909 49.6875C53.4441 49.727 53.6052 49.7464 53.774 49.7472C53.9416 49.7468 54.1146 49.7255 54.2944 49.6879C54.3841 49.6688 54.4757 49.6457 54.5681 49.6181C54.6612 49.5912 54.7528 49.5565 54.8467 49.5199C54.9406 49.483 55.0356 49.4419 55.1314 49.3968C55.2272 49.3516 55.3253 49.3042 55.4207 49.2494C56.198 48.8255 56.8841 48.3217 57.4569 47.9754C57.5976 47.8844 57.7318 47.8038 57.8557 47.7314C57.9788 47.6578 58.0895 47.5907 58.1871 47.5306C58.2845 47.4701 58.3677 47.416 58.4323 47.3657C58.4969 47.3153 58.5429 47.2686 58.565 47.2227C58.6216 47.1369 58.5616 47.0574 58.408 46.9951Z" fill="white"></path><path d="M53.7713 43.3019C53.8933 43.8639 54.2947 44.3942 54.7345 44.5994C54.9607 44.7128 55.1637 44.7151 55.345 44.6248C55.3902 44.602 55.4343 44.5736 55.4769 44.5401C55.5187 44.5054 55.5586 44.4651 55.5974 44.4199C55.6749 44.3292 55.7468 44.2176 55.8125 44.0882C56.0706 43.5657 56.2208 42.7448 56.2276 41.7921C56.228 41.5529 56.2158 41.3238 56.1942 41.1073C56.1698 40.889 56.1349 40.6819 56.0934 40.4897C56.0725 40.3935 56.0509 40.3009 56.0262 40.2117C56.0011 40.1218 55.9745 40.0356 55.9471 39.9535C55.8924 39.7889 55.8334 39.64 55.7734 39.5083C55.7434 39.4423 55.7129 39.3807 55.6829 39.3232C55.6525 39.2658 55.6213 39.212 55.5909 39.1635C55.5301 39.0661 55.4708 38.987 55.4161 38.9277C55.3066 38.8094 55.215 38.7706 55.1603 38.8254C55.1283 38.8486 55.1036 38.8904 55.0804 38.9471C55.0565 39.0034 55.0352 39.0747 55.0132 39.159C54.9915 39.2437 54.9668 39.34 54.9398 39.4464C54.9265 39.5001 54.909 39.5542 54.8911 39.6113C54.8729 39.668 54.8535 39.727 54.8315 39.7874C54.7551 40.0345 54.6342 40.2994 54.5038 40.5875C54.4354 40.7289 54.3635 40.8756 54.2913 41.0275C54.256 41.104 54.2176 41.1793 54.1799 41.2562C54.1423 41.3331 54.1047 41.4111 54.0678 41.4906C53.9956 41.6503 53.9283 41.804 53.8762 41.9593C53.85 42.0365 53.8272 42.1137 53.8078 42.191C53.7888 42.2682 53.7698 42.3429 53.7565 42.4186C53.7288 42.5694 53.7154 42.7194 53.7181 42.8675C53.72 42.9422 53.7238 43.0149 53.7326 43.087C53.7413 43.1582 53.7542 43.2303 53.7713 43.3019Z" fill="white"></path><path d="M61.6539 42.8238C61.5729 42.8059 61.4691 42.7959 61.3467 42.7947C61.2852 42.794 61.2198 42.7955 61.1487 42.7988C61.0776 42.8018 61.002 42.8071 60.9225 42.8145C60.7633 42.8294 60.588 42.8526 60.3999 42.885C60.306 42.9011 60.2087 42.9198 60.1087 42.9403C60.008 42.9604 59.9034 42.9821 59.797 43.0067C59.5838 43.0552 59.3614 43.1134 59.1311 43.1806C58.898 43.2459 58.6586 43.3205 58.4153 43.4056C57.4357 43.7422 56.6295 44.0374 56.132 44.3639C56.0061 44.4445 55.9001 44.5277 55.8161 44.6143C55.7739 44.6576 55.7374 44.7016 55.7062 44.7468C55.6743 44.7908 55.6477 44.8359 55.6272 44.8822C55.5454 45.0666 55.5576 45.2681 55.6815 45.4886C55.9069 45.9174 56.4543 46.2954 57.0773 46.3342C57.1564 46.3409 57.2366 46.3424 57.3175 46.3391C57.3989 46.3357 57.4814 46.3271 57.5631 46.3122C57.7273 46.2831 57.8957 46.2346 58.0664 46.1674C58.1515 46.1334 58.2389 46.0969 58.3241 46.0528C58.4092 46.0092 58.4951 45.9614 58.5818 45.9095C58.754 45.8054 58.9304 45.6864 59.1006 45.5472C59.1865 45.4782 59.2713 45.4088 59.3549 45.339C59.4386 45.2692 59.5218 45.1998 59.6009 45.1281C59.7605 44.986 59.9156 44.8453 60.0658 44.7087C60.2129 44.5695 60.3554 44.4352 60.4934 44.3083C60.6329 44.1825 60.7606 44.0601 60.8876 43.9508C60.9491 43.8945 61.0096 43.8407 61.0685 43.7896C61.127 43.7385 61.1852 43.6907 61.2384 43.6433C61.3464 43.5497 61.4444 43.4649 61.5307 43.3899C61.6166 43.3142 61.6892 43.247 61.7443 43.1866C61.7987 43.1257 61.8344 43.0709 61.8489 43.0224C61.8892 42.928 61.8162 42.8597 61.6539 42.8238Z" fill="white"></path><path d="M56.37 39.7553C56.3909 39.8251 56.4156 39.8938 56.4449 39.9613C56.6619 40.4942 57.1492 40.9491 57.6183 41.0782C57.8612 41.1521 58.0619 41.1211 58.2253 41.0017C58.2459 40.9868 58.2656 40.9707 58.2846 40.9528C58.3033 40.9349 58.3215 40.9155 58.339 40.895C58.374 40.8539 58.407 40.8077 58.4374 40.7565C58.4983 40.6543 58.5499 40.5326 58.5929 40.3942C58.7556 39.8356 58.7602 39.0016 58.6009 38.0619C58.5595 37.8261 58.5093 37.6037 58.4488 37.3932C58.3861 37.182 58.3162 36.9846 58.2421 36.8021C58.1695 36.6204 58.0858 36.4506 58.0037 36.2984C57.9212 36.1457 57.8372 36.0092 57.7551 35.8894C57.6738 35.77 57.5913 35.6658 57.5141 35.5804C57.437 35.4946 57.3651 35.427 57.3009 35.3778C57.1724 35.28 57.0755 35.2569 57.031 35.3199C57.0036 35.3479 56.9862 35.3931 56.974 35.4531C56.9615 35.5128 56.9519 35.5864 56.9447 35.6733C56.9295 35.8461 56.9223 36.0711 56.8755 36.3222C56.8668 36.3857 56.8562 36.4514 56.844 36.5189C56.8318 36.5861 56.8193 36.6558 56.8018 36.7253C56.7691 36.8652 56.7315 37.0118 56.692 37.1645C56.606 37.4686 56.5144 37.7933 56.4209 38.1265C56.3981 38.2104 56.3784 38.294 56.3613 38.3769C56.3426 38.4586 56.3267 38.5399 56.3141 38.6202C56.3016 38.7008 56.2925 38.7803 56.2864 38.8594C56.2833 38.8989 56.281 38.9381 56.2799 38.9773C56.2784 39.0161 56.2769 39.0545 56.2765 39.0926C56.275 39.2456 56.2879 39.3952 56.3156 39.5404C56.3305 39.6132 56.3487 39.6852 56.37 39.7553Z" fill="white"></path><path d="M64.1279 38.1652C64.0447 38.1611 63.9409 38.169 63.82 38.188C63.6988 38.207 63.5612 38.2384 63.4061 38.2794C63.2518 38.3209 63.0826 38.3735 62.9028 38.4369C62.7226 38.5003 62.5337 38.5757 62.3304 38.6586C62.1285 38.7422 61.9187 38.8366 61.7039 38.9418C61.4869 39.0459 61.2626 39.159 61.0376 39.284C60.131 39.7803 59.3887 40.2068 58.9557 40.6125C58.8455 40.7128 58.755 40.8121 58.6866 40.9114C58.6524 40.961 58.6239 41.0102 58.6007 41.0599C58.5893 41.0845 58.579 41.1095 58.5706 41.1341C58.5619 41.1588 58.5539 41.183 58.5478 41.2073C58.4988 41.4024 58.5456 41.5987 58.7056 41.795C59.0017 42.1797 59.6072 42.4607 60.2287 42.3951C60.3078 42.3887 60.3872 42.3768 60.467 42.3596C60.5461 42.3421 60.6244 42.3189 60.7031 42.2909C60.8605 42.235 61.0178 42.1588 61.1752 42.0644C61.2143 42.0409 61.2543 42.0163 61.2926 41.9902C61.331 41.9637 61.3694 41.9364 61.4078 41.9077C61.4846 41.8506 61.561 41.789 61.6374 41.7234C61.7138 41.6577 61.7898 41.5879 61.8655 41.5144C61.9396 41.4398 62.0126 41.361 62.0856 41.2789C62.3798 40.9513 62.6428 40.6098 62.8906 40.2897C63.0119 40.1281 63.129 39.9714 63.2434 39.8236C63.3012 39.7501 63.3551 39.6769 63.4091 39.6068C63.4631 39.5366 63.5163 39.4691 63.5688 39.4045C63.7752 39.1414 63.961 38.9209 64.1047 38.7433C64.1762 38.6541 64.237 38.5757 64.2796 38.5067C64.3218 38.4373 64.348 38.3776 64.3537 38.3272C64.3777 38.2283 64.294 38.1735 64.1279 38.1652Z" fill="white"></path><path d="M58.1462 35.165C58.1538 35.2434 58.1664 35.3217 58.1778 35.3967C58.2028 35.5475 58.2416 35.6927 58.2945 35.8307C58.3211 35.9001 58.3511 35.9673 58.3849 36.033C58.4191 36.0987 58.4545 36.1617 58.4952 36.2233C58.8015 36.711 59.3611 37.0775 59.8461 37.1256C60.0985 37.1577 60.2908 37.0931 60.4315 36.9484C60.5683 36.8021 60.6515 36.5752 60.6869 36.2879C60.7504 35.7102 60.6078 34.8878 60.2863 33.9892C60.2042 33.7638 60.1156 33.5529 60.0194 33.3563C59.9206 33.1585 59.8172 32.976 59.7119 32.8089C59.6081 32.6421 59.4971 32.4891 59.3888 32.3528C59.2805 32.2163 59.174 32.0957 59.0722 31.9916C59.0212 31.9394 58.9714 31.8916 58.9232 31.8476C58.8741 31.8036 58.8266 31.7636 58.7814 31.7278C58.6905 31.6562 58.6077 31.6017 58.5358 31.564C58.3921 31.4893 58.2926 31.483 58.2599 31.5528C58.2378 31.5849 58.2287 31.6326 58.2268 31.6935C58.2238 31.7543 58.2283 31.8286 58.2363 31.9151C58.245 32.0021 58.2549 32.101 58.2659 32.2099C58.2682 32.2372 58.2709 32.2652 58.2732 32.2939C58.2747 32.3222 58.2762 32.3514 58.2774 32.3812C58.28 32.4405 58.2815 32.5025 58.2815 32.5663C58.2842 32.6305 58.285 32.6969 58.285 32.7652C58.285 32.8335 58.2842 32.9044 58.2796 32.9757C58.272 33.119 58.2606 33.2701 58.2485 33.4268C58.2173 33.7406 58.1842 34.0761 58.15 34.4198C58.1424 34.5064 58.1371 34.5918 58.1352 34.6765C58.1318 34.7605 58.1299 34.8426 58.1314 34.9239C58.1337 35.006 58.1386 35.0863 58.1462 35.165Z" fill="white"></path><path d="M65.748 33.1576C65.6655 33.1676 65.5648 33.1926 65.4488 33.2322C65.3911 33.252 65.3295 33.2751 65.2641 33.302C65.1984 33.3285 65.1288 33.3587 65.0566 33.3919C64.9117 33.4587 64.7548 33.5389 64.589 33.6319C64.4229 33.7248 64.2492 33.8307 64.0637 33.9468C63.8797 34.0636 63.6893 34.192 63.4966 34.3319C63.3008 34.4711 63.0997 34.6207 62.9002 34.7816C62.094 35.4234 61.4379 35.9693 61.0817 36.4418C60.9 36.6765 60.7959 36.8948 60.7848 37.0967C60.7704 37.2971 60.8506 37.4825 61.0422 37.6486C61.401 37.9777 62.0464 38.1527 62.6482 37.9837C62.725 37.9639 62.8021 37.9393 62.8762 37.9083C62.9507 37.8777 63.0241 37.8419 63.0967 37.8008C63.2419 37.7191 63.3841 37.6176 63.5228 37.4982C63.5931 37.4389 63.6581 37.3732 63.7243 37.3042C63.79 37.2347 63.8546 37.1612 63.9185 37.084C63.982 37.0064 64.0455 36.925 64.1063 36.8396C64.166 36.7534 64.2245 36.6638 64.2819 36.5701C64.3963 36.3832 64.5088 36.1962 64.6084 36.0089C64.659 35.9152 64.7092 35.8227 64.7586 35.7313C64.8072 35.6395 64.8574 35.5492 64.9019 35.4592C64.9927 35.2794 65.0809 35.1055 65.1676 34.9405C65.2117 34.8584 65.252 34.7771 65.293 34.6991C65.3337 34.6211 65.3743 34.5454 65.415 34.473C65.4538 34.3994 65.4922 34.3285 65.5298 34.261C65.5488 34.2274 65.5678 34.1942 65.5861 34.1617C65.6039 34.1293 65.6214 34.0976 65.6385 34.0666C65.7081 33.9423 65.7712 33.83 65.8267 33.7311C65.8814 33.6315 65.9267 33.5438 65.9578 33.4688C65.9879 33.3934 66.0027 33.33 65.9993 33.2796C66.005 33.1777 65.913 33.1374 65.748 33.1576Z" fill="white"></path><path d="M61.183 33.3045C61.2966 33.4843 61.4742 33.609 61.7281 33.6616C61.971 33.7187 62.2466 33.7064 62.5104 33.6235C62.6419 33.5821 62.7715 33.5235 62.8905 33.4474C63.0079 33.3713 63.1166 33.2776 63.2105 33.1683C63.6066 32.7339 63.7419 32.0357 63.6598 31.2192C63.6492 31.117 63.6374 31.0158 63.6248 30.9158C63.6184 30.8658 63.6119 30.8162 63.6058 30.7666C63.5994 30.7169 63.5906 30.6677 63.583 30.6188C63.5515 30.4229 63.5184 30.2329 63.4869 30.0501C63.453 29.8669 63.4173 29.6907 63.3877 29.5239C63.3728 29.4403 63.3588 29.359 63.3462 29.2803C63.3322 29.2012 63.3192 29.1243 63.3082 29.0504C63.2816 28.9022 63.2626 28.7645 63.2466 28.6388C63.2428 28.6074 63.239 28.5765 63.2352 28.5466C63.231 28.5168 63.2269 28.4873 63.2227 28.4589C63.2143 28.4022 63.2067 28.3488 63.1995 28.2988C63.1687 28.0988 63.1372 27.9548 63.0729 27.8831C62.9642 27.726 62.6742 27.9376 62.367 28.4C62.3477 28.4287 62.3287 28.4586 62.3093 28.4895C62.2891 28.5201 62.269 28.5518 62.2488 28.5847C62.2085 28.65 62.1682 28.719 62.128 28.7914C62.088 28.8638 62.0481 28.9399 62.009 29.019C61.9892 29.0586 61.9702 29.0993 61.9504 29.1403C61.9299 29.1814 61.9098 29.2235 61.89 29.2665C61.8094 29.4374 61.7349 29.6213 61.6623 29.8165C61.5863 30.0109 61.5175 30.2173 61.4548 30.4341C61.3871 30.6501 61.3282 30.8591 61.2769 31.0599C61.2206 31.2599 61.1739 31.4517 61.137 31.6345C61.0978 31.817 61.0648 31.9894 61.0458 32.1521C61.0279 32.3152 61.0142 32.4663 61.0157 32.607C61.0169 32.7477 61.0313 32.8768 61.0598 32.994C61.0857 33.1108 61.126 33.2145 61.183 33.3045Z" fill="white"></path><path d="M15.6524 7.55329C17.9053 5.342 20.5278 3.60582 23.4493 2.3929L23.4493 2.3929C26.474 1.13697 29.6865 0.5 32.9999 0.5C36.3133 0.5 39.5258 1.13697 42.5505 2.3929L42.7423 1.93112L42.5505 2.3929C45.472 3.60583 48.095 5.34201 50.3474 7.55326C52.5998 9.7645 54.3674 12.3385 55.6019 15.2042L56.0611 15.0064L55.6019 15.2042C56.8801 18.1711 57.5282 21.3219 57.5282 24.5706C57.5282 27.8196 56.8801 30.9704 55.6019 33.9373C54.3674 36.8027 52.5998 39.3766 50.3474 41.5879C48.0946 43.7992 45.472 45.5354 42.5505 46.7483L42.7423 47.2101L42.5505 46.7483C39.5258 48.0042 36.3133 48.6412 32.9999 48.6412C29.6869 48.6412 26.474 48.0042 23.4493 46.7483L23.2576 47.2101L23.4493 46.7483C20.5278 45.5353 17.9049 43.7992 15.6525 41.5879C13.4 39.3767 11.6325 36.803 10.398 33.9373C9.11972 30.9701 8.47168 27.8196 8.47168 24.5706C8.47168 21.3219 9.11973 18.1711 10.398 15.2042L10.398 15.2042C11.6325 12.3385 13.4 9.76453 15.6524 7.55329ZM15.6524 7.55329L15.3022 7.19646L15.6524 7.55329ZM17.3181 39.9782L17.3181 39.9782C21.5079 44.091 27.0785 46.3555 32.9995 46.3555C38.9206 46.3555 44.4915 44.091 48.681 39.9782C52.8711 35.8651 55.1813 30.3917 55.1813 24.5706C55.1813 18.7495 52.8711 13.2761 48.6814 9.16298L48.3311 9.51978L48.6813 9.16296C44.4915 5.05017 38.921 2.78571 32.9999 2.78571C27.0788 2.78571 21.5079 5.05055 17.3185 9.16296L17.3185 9.16298C13.1288 13.2761 10.8186 18.7495 10.8186 24.5706C10.8186 30.3917 13.1288 35.8651 17.3181 39.9782Z" stroke="white"></path></g><defs><clipPath id="clip0_2877_3339"><rect width="66" height="57" fill="white"></rect></clipPath></defs></svg>