<svg width="16" height="9" viewBox="0 0 16 9" fill="none" xmlns="http://www.w3.org/2000/svg">
<path fill-rule="evenodd" clip-rule="evenodd" d="M7.59529 8.49111L0.495602 1.32135C0.262718 1.08682 0.26351 0.705902 0.496394 0.472163C0.729404 0.238413 1.10775 0.238413 1.33995 0.472944L8.01825 7.21535L14.6958 0.472944C14.928 0.238413 15.3055 0.237632 15.5393 0.472163C15.6566 0.589423 15.7144 0.742114 15.7144 0.897148C15.7144 1.05062 15.6566 1.20409 15.5401 1.32135L8.44042 8.49111C8.32805 8.60444 8.17608 8.66739 8.01825 8.66739C7.85964 8.66739 7.70766 8.60365 7.59529 8.49111Z" fill="black"/>
<path fill-rule="evenodd" clip-rule="evenodd" d="M7.59529 8.49111L0.495602 1.32135C0.262718 1.08682 0.26351 0.705902 0.496394 0.472163C0.729404 0.238413 1.10775 0.238413 1.33995 0.472944L8.01825 7.21535L14.6958 0.472944C14.928 0.238413 15.3055 0.237632 15.5393 0.472163C15.6566 0.589423 15.7144 0.742114 15.7144 0.897148C15.7144 1.05062 15.6566 1.20409 15.5401 1.32135L8.44042 8.49111C8.32805 8.60444 8.17608 8.66739 8.01825 8.66739C7.85964 8.66739 7.70766 8.60365 7.59529 8.49111Z" fill="#111204"/>
</svg>
